<svg width="622" height="711" viewBox="0 0 622 711" fill="none" xmlns="http://www.w3.org/2000/svg">
<g filter="url(#filter0_d_38_533)">
<rect x="60" y="30" width="502" height="441" rx="3" fill="#161629"/>
<rect x="60.5" y="30.5" width="501" height="440" rx="2.5" stroke="white" stroke-opacity="0.1"/>
</g>
<path d="M171.034 536H168.014V524.24H164.134V521.72H174.914V524.24H171.034V536ZM179.856 523.9C179.856 524.433 179.836 524.947 179.796 525.44C179.77 525.933 179.743 526.28 179.716 526.48H179.876C180.223 525.92 180.67 525.513 181.216 525.26C181.763 525.007 182.37 524.88 183.036 524.88C184.223 524.88 185.17 525.2 185.876 525.84C186.596 526.467 186.956 527.48 186.956 528.88V536H183.976V529.62C183.976 528.047 183.39 527.26 182.216 527.26C181.323 527.26 180.703 527.573 180.356 528.2C180.023 528.813 179.856 529.7 179.856 530.86V536H176.876V520.8H179.856V523.9ZM194.521 524.88C196.028 524.88 197.221 525.313 198.101 526.18C198.981 527.033 199.421 528.253 199.421 529.84V531.28H192.381C192.408 532.12 192.654 532.78 193.121 533.26C193.601 533.74 194.261 533.98 195.101 533.98C195.808 533.98 196.448 533.913 197.021 533.78C197.594 533.633 198.188 533.413 198.801 533.12V535.42C198.268 535.687 197.701 535.88 197.101 536C196.514 536.133 195.801 536.2 194.961 536.2C193.868 536.2 192.901 536 192.061 535.6C191.221 535.187 190.561 534.567 190.081 533.74C189.601 532.913 189.361 531.873 189.361 530.62C189.361 529.34 189.574 528.28 190.001 527.44C190.441 526.587 191.048 525.947 191.821 525.52C192.594 525.093 193.494 524.88 194.521 524.88ZM194.541 527C193.968 527 193.488 527.187 193.101 527.56C192.728 527.933 192.508 528.513 192.441 529.3H196.621C196.608 528.633 196.434 528.087 196.101 527.66C195.768 527.22 195.248 527 194.541 527ZM213.313 536L209.873 524.8H209.793C209.806 525.067 209.826 525.467 209.853 526C209.879 526.533 209.906 527.107 209.933 527.72C209.959 528.32 209.973 528.867 209.973 529.36V536H207.273V521.72H211.393L214.773 532.64H214.833L218.413 521.72H222.533V536H219.713V529.24C219.713 528.787 219.719 528.267 219.733 527.68C219.759 527.093 219.779 526.54 219.793 526.02C219.819 525.487 219.839 525.087 219.853 524.82H219.773L216.093 536H213.313ZM235.82 530.52C235.82 532.333 235.34 533.733 234.38 534.72C233.433 535.707 232.14 536.2 230.5 536.2C229.487 536.2 228.58 535.98 227.78 535.54C226.993 535.1 226.373 534.46 225.92 533.62C225.467 532.767 225.24 531.733 225.24 530.52C225.24 528.707 225.713 527.313 226.66 526.34C227.607 525.367 228.907 524.88 230.56 524.88C231.587 524.88 232.493 525.1 233.28 525.54C234.067 525.98 234.687 526.62 235.14 527.46C235.593 528.287 235.82 529.307 235.82 530.52ZM228.28 530.52C228.28 531.6 228.453 532.42 228.8 532.98C229.16 533.527 229.74 533.8 230.54 533.8C231.327 533.8 231.893 533.527 232.24 532.98C232.6 532.42 232.78 531.6 232.78 530.52C232.78 529.44 232.6 528.633 232.24 528.1C231.893 527.553 231.32 527.28 230.52 527.28C229.733 527.28 229.16 527.553 228.8 528.1C228.453 528.633 228.28 529.44 228.28 530.52ZM241.263 524.34C241.263 524.753 241.249 525.16 241.223 525.56C241.196 525.96 241.169 526.273 241.143 526.5H241.263C241.556 526.047 241.949 525.667 242.443 525.36C242.936 525.04 243.576 524.88 244.363 524.88C245.589 524.88 246.583 525.36 247.343 526.32C248.103 527.267 248.483 528.667 248.483 530.52C248.483 532.387 248.096 533.8 247.323 534.76C246.549 535.72 245.536 536.2 244.283 536.2C243.483 536.2 242.849 536.06 242.383 535.78C241.929 535.487 241.556 535.16 241.263 534.8H241.063L240.563 536H238.283V520.8H241.263V524.34ZM243.403 527.26C242.629 527.26 242.083 527.5 241.763 527.98C241.456 528.46 241.289 529.193 241.263 530.18V530.5C241.263 531.553 241.416 532.367 241.723 532.94C242.043 533.5 242.616 533.78 243.443 533.78C244.056 533.78 244.543 533.5 244.903 532.94C245.263 532.367 245.443 531.547 245.443 530.48C245.443 529.413 245.256 528.613 244.883 528.08C244.523 527.533 244.029 527.26 243.403 527.26ZM252.439 520.8C252.879 520.8 253.259 520.907 253.579 521.12C253.899 521.32 254.059 521.7 254.059 522.26C254.059 522.807 253.899 523.187 253.579 523.4C253.259 523.613 252.879 523.72 252.439 523.72C251.986 523.72 251.599 523.613 251.279 523.4C250.972 523.187 250.819 522.807 250.819 522.26C250.819 521.7 250.972 521.32 251.279 521.12C251.599 520.907 251.986 520.8 252.439 520.8ZM253.919 525.08V536H250.939V525.08H253.919ZM260.013 536H257.033V520.8H260.013V536ZM267.626 524.88C269.133 524.88 270.326 525.313 271.206 526.18C272.086 527.033 272.526 528.253 272.526 529.84V531.28H265.486C265.513 532.12 265.76 532.78 266.226 533.26C266.706 533.74 267.366 533.98 268.206 533.98C268.913 533.98 269.553 533.913 270.126 533.78C270.7 533.633 271.293 533.413 271.906 533.12V535.42C271.373 535.687 270.806 535.88 270.206 536C269.62 536.133 268.906 536.2 268.066 536.2C266.973 536.2 266.006 536 265.166 535.6C264.326 535.187 263.666 534.567 263.186 533.74C262.706 532.913 262.466 531.873 262.466 530.62C262.466 529.34 262.68 528.28 263.106 527.44C263.546 526.587 264.153 525.947 264.926 525.52C265.7 525.093 266.6 524.88 267.626 524.88ZM267.646 527C267.073 527 266.593 527.187 266.206 527.56C265.833 527.933 265.613 528.513 265.546 529.3H269.726C269.713 528.633 269.54 528.087 269.206 527.66C268.873 527.22 268.353 527 267.646 527ZM289.118 536L288.078 532.6H282.878L281.838 536H278.578L283.618 521.66H287.318L292.378 536H289.118ZM286.318 526.74C286.251 526.513 286.165 526.227 286.058 525.88C285.951 525.533 285.845 525.18 285.738 524.82C285.631 524.46 285.545 524.147 285.478 523.88C285.411 524.147 285.318 524.48 285.198 524.88C285.091 525.267 284.985 525.64 284.878 526C284.785 526.347 284.711 526.593 284.658 526.74L283.638 530.06H287.358L286.318 526.74ZM300.027 524.88C301.253 524.88 302.247 525.36 303.007 526.32C303.767 527.267 304.147 528.667 304.147 530.52C304.147 532.373 303.753 533.787 302.967 534.76C302.18 535.72 301.173 536.2 299.947 536.2C299.16 536.2 298.533 536.06 298.067 535.78C297.6 535.487 297.22 535.16 296.927 534.8H296.767C296.873 535.36 296.927 535.893 296.927 536.4V540.8H293.947V525.08H296.367L296.787 526.5H296.927C297.22 526.06 297.613 525.68 298.107 525.36C298.6 525.04 299.24 524.88 300.027 524.88ZM299.067 527.26C298.293 527.26 297.747 527.5 297.427 527.98C297.12 528.46 296.953 529.193 296.927 530.18V530.5C296.927 531.553 297.08 532.367 297.387 532.94C297.707 533.5 298.28 533.78 299.107 533.78C299.787 533.78 300.287 533.5 300.607 532.94C300.94 532.367 301.107 531.547 301.107 530.48C301.107 528.333 300.427 527.26 299.067 527.26ZM312.683 524.88C313.91 524.88 314.903 525.36 315.663 526.32C316.423 527.267 316.803 528.667 316.803 530.52C316.803 532.373 316.41 533.787 315.623 534.76C314.836 535.72 313.83 536.2 312.603 536.2C311.816 536.2 311.19 536.06 310.723 535.78C310.256 535.487 309.876 535.16 309.583 534.8H309.423C309.53 535.36 309.583 535.893 309.583 536.4V540.8H306.603V525.08H309.023L309.443 526.5H309.583C309.876 526.06 310.27 525.68 310.763 525.36C311.256 525.04 311.896 524.88 312.683 524.88ZM311.723 527.26C310.95 527.26 310.403 527.5 310.083 527.98C309.776 528.46 309.61 529.193 309.583 530.18V530.5C309.583 531.553 309.736 532.367 310.043 532.94C310.363 533.5 310.936 533.78 311.763 533.78C312.443 533.78 312.943 533.5 313.263 532.94C313.596 532.367 313.763 531.547 313.763 530.48C313.763 528.333 313.083 527.26 311.723 527.26ZM324.695 536V521.72H327.715V533.5H333.515V536H324.695ZM340.243 524.86C341.71 524.86 342.83 525.18 343.603 525.82C344.39 526.447 344.783 527.413 344.783 528.72V536H342.703L342.123 534.52H342.043C341.576 535.107 341.083 535.533 340.563 535.8C340.043 536.067 339.33 536.2 338.423 536.2C337.45 536.2 336.643 535.92 336.003 535.36C335.363 534.787 335.043 533.913 335.043 532.74C335.043 531.58 335.45 530.727 336.263 530.18C337.076 529.62 338.296 529.313 339.923 529.26L341.823 529.2V528.72C341.823 528.147 341.67 527.727 341.363 527.46C341.07 527.193 340.656 527.06 340.123 527.06C339.59 527.06 339.07 527.14 338.563 527.3C338.056 527.447 337.55 527.633 337.043 527.86L336.063 525.84C336.65 525.533 337.296 525.293 338.003 525.12C338.723 524.947 339.47 524.86 340.243 524.86ZM340.663 530.98C339.703 531.007 339.036 531.18 338.663 531.5C338.29 531.82 338.103 532.24 338.103 532.76C338.103 533.213 338.236 533.54 338.503 533.74C338.77 533.927 339.116 534.02 339.543 534.02C340.183 534.02 340.723 533.833 341.163 533.46C341.603 533.073 341.823 532.533 341.823 531.84V530.94L340.663 530.98ZM354.033 524.88C355.207 524.88 356.147 525.2 356.853 525.84C357.56 526.467 357.913 527.48 357.913 528.88V536H354.933V529.62C354.933 528.833 354.793 528.247 354.513 527.86C354.233 527.46 353.787 527.26 353.173 527.26C352.267 527.26 351.647 527.573 351.313 528.2C350.98 528.813 350.813 529.7 350.813 530.86V536H347.833V525.08H350.113L350.513 526.48H350.673C351.02 525.92 351.493 525.513 352.093 525.26C352.707 525.007 353.353 524.88 354.033 524.88ZM364.438 536.2C363.225 536.2 362.231 535.727 361.458 534.78C360.698 533.82 360.318 532.413 360.318 530.56C360.318 528.693 360.705 527.28 361.478 526.32C362.251 525.36 363.265 524.88 364.518 524.88C365.305 524.88 365.951 525.033 366.458 525.34C366.965 525.647 367.365 526.027 367.658 526.48H367.758C367.718 526.267 367.671 525.96 367.618 525.56C367.565 525.147 367.538 524.727 367.538 524.3V520.8H370.518V536H368.238L367.658 534.58H367.538C367.245 535.033 366.851 535.42 366.358 535.74C365.865 536.047 365.225 536.2 364.438 536.2ZM365.478 533.82C366.305 533.82 366.885 533.58 367.218 533.1C367.551 532.607 367.725 531.873 367.738 530.9V530.58C367.738 529.513 367.571 528.7 367.238 528.14C366.918 527.58 366.318 527.3 365.438 527.3C364.785 527.3 364.271 527.587 363.898 528.16C363.525 528.72 363.338 529.533 363.338 530.6C363.338 531.667 363.525 532.473 363.898 533.02C364.271 533.553 364.798 533.82 365.478 533.82ZM375.134 520.8C375.574 520.8 375.954 520.907 376.274 521.12C376.594 521.32 376.754 521.7 376.754 522.26C376.754 522.807 376.594 523.187 376.274 523.4C375.954 523.613 375.574 523.72 375.134 523.72C374.681 523.72 374.294 523.613 373.974 523.4C373.668 523.187 373.514 522.807 373.514 522.26C373.514 521.7 373.668 521.32 373.974 521.12C374.294 520.907 374.681 520.8 375.134 520.8ZM376.614 525.08V536H373.634V525.08H376.614ZM385.928 524.88C387.101 524.88 388.041 525.2 388.748 525.84C389.455 526.467 389.808 527.48 389.808 528.88V536H386.828V529.62C386.828 528.833 386.688 528.247 386.408 527.86C386.128 527.46 385.681 527.26 385.068 527.26C384.161 527.26 383.541 527.573 383.208 528.2C382.875 528.813 382.708 529.7 382.708 530.86V536H379.728V525.08H382.008L382.408 526.48H382.568C382.915 525.92 383.388 525.513 383.988 525.26C384.601 525.007 385.248 524.88 385.928 524.88ZM396.413 524.88C397.759 524.88 398.813 525.413 399.573 526.48H399.653L399.893 525.08H402.413V536.02C402.413 537.58 401.953 538.767 401.033 539.58C400.113 540.393 398.753 540.8 396.953 540.8C396.179 540.8 395.459 540.753 394.793 540.66C394.139 540.567 393.499 540.4 392.873 540.16V537.78C394.219 538.34 395.639 538.62 397.133 538.62C398.666 538.62 399.433 537.793 399.433 536.14V535.92C399.433 535.693 399.439 535.46 399.453 535.22C399.479 534.98 399.499 534.767 399.513 534.58H399.433C399.059 535.153 398.613 535.567 398.093 535.82C397.573 536.073 396.986 536.2 396.333 536.2C395.039 536.2 394.026 535.707 393.293 534.72C392.573 533.72 392.213 532.333 392.213 530.56C392.213 528.773 392.586 527.38 393.333 526.38C394.079 525.38 395.106 524.88 396.413 524.88ZM397.353 527.3C395.953 527.3 395.253 528.4 395.253 530.6C395.253 532.773 395.966 533.86 397.393 533.86C398.153 533.86 398.713 533.647 399.073 533.22C399.446 532.78 399.633 532.02 399.633 530.94V530.58C399.633 529.407 399.453 528.567 399.093 528.06C398.733 527.553 398.153 527.3 397.353 527.3ZM415.524 521.72C417.364 521.72 418.704 522.12 419.544 522.92C420.397 523.707 420.824 524.793 420.824 526.18C420.824 527.007 420.651 527.787 420.304 528.52C419.957 529.24 419.377 529.82 418.564 530.26C417.764 530.7 416.671 530.92 415.284 530.92H413.984V536H410.964V521.72H415.524ZM415.364 524.2H413.984V528.44H414.984C415.837 528.44 416.511 528.273 417.004 527.94C417.511 527.593 417.764 527.04 417.764 526.28C417.764 524.893 416.964 524.2 415.364 524.2ZM427.763 524.86C429.229 524.86 430.349 525.18 431.123 525.82C431.909 526.447 432.303 527.413 432.303 528.72V536H430.223L429.643 534.52H429.563C429.096 535.107 428.603 535.533 428.083 535.8C427.563 536.067 426.849 536.2 425.943 536.2C424.969 536.2 424.163 535.92 423.523 535.36C422.883 534.787 422.563 533.913 422.563 532.74C422.563 531.58 422.969 530.727 423.783 530.18C424.596 529.62 425.816 529.313 427.443 529.26L429.343 529.2V528.72C429.343 528.147 429.189 527.727 428.883 527.46C428.589 527.193 428.176 527.06 427.643 527.06C427.109 527.06 426.589 527.14 426.083 527.3C425.576 527.447 425.069 527.633 424.563 527.86L423.583 525.84C424.169 525.533 424.816 525.293 425.523 525.12C426.243 524.947 426.989 524.86 427.763 524.86ZM428.183 530.98C427.223 531.007 426.556 531.18 426.183 531.5C425.809 531.82 425.623 532.24 425.623 532.76C425.623 533.213 425.756 533.54 426.023 533.74C426.289 533.927 426.636 534.02 427.063 534.02C427.703 534.02 428.243 533.833 428.683 533.46C429.123 533.073 429.343 532.533 429.343 531.84V530.94L428.183 530.98ZM438.893 524.88C440.24 524.88 441.293 525.413 442.053 526.48H442.133L442.373 525.08H444.893V536.02C444.893 537.58 444.433 538.767 443.513 539.58C442.593 540.393 441.233 540.8 439.433 540.8C438.66 540.8 437.94 540.753 437.273 540.66C436.62 540.567 435.98 540.4 435.353 540.16V537.78C436.7 538.34 438.12 538.62 439.613 538.62C441.146 538.62 441.913 537.793 441.913 536.14V535.92C441.913 535.693 441.92 535.46 441.933 535.22C441.96 534.98 441.98 534.767 441.993 534.58H441.913C441.54 535.153 441.093 535.567 440.573 535.82C440.053 536.073 439.466 536.2 438.813 536.2C437.52 536.2 436.506 535.707 435.773 534.72C435.053 533.72 434.693 532.333 434.693 530.56C434.693 528.773 435.066 527.38 435.813 526.38C436.56 525.38 437.586 524.88 438.893 524.88ZM439.833 527.3C438.433 527.3 437.733 528.4 437.733 530.6C437.733 532.773 438.446 533.86 439.873 533.86C440.633 533.86 441.193 533.647 441.553 533.22C441.926 532.78 442.113 532.02 442.113 530.94V530.58C442.113 529.407 441.933 528.567 441.573 528.06C441.213 527.553 440.633 527.3 439.833 527.3ZM452.509 524.88C454.016 524.88 455.209 525.313 456.089 526.18C456.969 527.033 457.409 528.253 457.409 529.84V531.28H450.369C450.396 532.12 450.643 532.78 451.109 533.26C451.589 533.74 452.249 533.98 453.089 533.98C453.796 533.98 454.436 533.913 455.009 533.78C455.583 533.633 456.176 533.413 456.789 533.12V535.42C456.256 535.687 455.689 535.88 455.089 536C454.503 536.133 453.789 536.2 452.949 536.2C451.856 536.2 450.889 536 450.049 535.6C449.209 535.187 448.549 534.567 448.069 533.74C447.589 532.913 447.349 531.873 447.349 530.62C447.349 529.34 447.563 528.28 447.989 527.44C448.429 526.587 449.036 525.947 449.809 525.52C450.583 525.093 451.483 524.88 452.509 524.88ZM452.529 527C451.956 527 451.476 527.187 451.089 527.56C450.716 527.933 450.496 528.513 450.429 529.3H454.609C454.596 528.633 454.423 528.087 454.089 527.66C453.756 527.22 453.236 527 452.529 527Z" fill="white"/>
<path d="M205.923 578L204.547 574.464H200.019L198.659 578H197.203L201.667 566.528H202.963L207.411 578H205.923ZM202.835 569.728C202.803 569.643 202.75 569.488 202.675 569.264C202.6 569.04 202.526 568.811 202.451 568.576C202.387 568.331 202.334 568.144 202.291 568.016C202.216 568.347 202.131 568.672 202.035 568.992C201.939 569.301 201.859 569.547 201.795 569.728L200.499 573.184H204.115L202.835 569.728ZM214.346 578H212.938V565.84H214.346V578ZM220.311 569.28C221.356 569.28 222.13 569.509 222.631 569.968C223.132 570.427 223.383 571.157 223.383 572.16V578H222.359L222.087 576.784H222.023C221.65 577.253 221.255 577.6 220.839 577.824C220.434 578.048 219.868 578.16 219.143 578.16C218.364 578.16 217.719 577.957 217.207 577.552C216.695 577.136 216.439 576.491 216.439 575.616C216.439 574.763 216.775 574.107 217.447 573.648C218.119 573.179 219.154 572.923 220.551 572.88L222.007 572.832V572.32C222.007 571.605 221.852 571.109 221.543 570.832C221.234 570.555 220.796 570.416 220.231 570.416C219.783 570.416 219.356 570.485 218.951 570.624C218.546 570.752 218.167 570.901 217.815 571.072L217.383 570.016C217.756 569.813 218.199 569.643 218.711 569.504C219.223 569.355 219.756 569.28 220.311 569.28ZM220.727 573.856C219.66 573.899 218.919 574.069 218.503 574.368C218.098 574.667 217.895 575.088 217.895 575.632C217.895 576.112 218.039 576.464 218.327 576.688C218.626 576.912 219.004 577.024 219.463 577.024C220.188 577.024 220.791 576.827 221.271 576.432C221.751 576.027 221.991 575.408 221.991 574.576V573.808L220.727 573.856ZM230.16 569.264C231.184 569.264 231.957 569.515 232.48 570.016C233.003 570.507 233.264 571.307 233.264 572.416V578H231.872V572.512C231.872 571.136 231.232 570.448 229.952 570.448C229.003 570.448 228.347 570.715 227.984 571.248C227.621 571.781 227.44 572.549 227.44 573.552V578H226.032V569.424H227.168L227.376 570.592H227.456C227.733 570.144 228.117 569.813 228.608 569.6C229.099 569.376 229.616 569.264 230.16 569.264ZM238.963 578.16C237.896 578.16 237.043 577.792 236.403 577.056C235.763 576.309 235.443 575.2 235.443 573.728C235.443 572.256 235.763 571.147 236.403 570.4C237.053 569.643 237.912 569.264 238.979 569.264C239.64 569.264 240.179 569.387 240.595 569.632C241.021 569.877 241.368 570.176 241.635 570.528H241.731C241.72 570.389 241.699 570.187 241.667 569.92C241.645 569.643 241.635 569.424 241.635 569.264V565.84H243.043V578H241.907L241.699 576.848H241.635C241.379 577.211 241.037 577.52 240.611 577.776C240.184 578.032 239.635 578.16 238.963 578.16ZM239.187 576.992C240.093 576.992 240.728 576.747 241.091 576.256C241.464 575.755 241.651 575.003 241.651 574V573.744C241.651 572.677 241.475 571.861 241.123 571.296C240.771 570.72 240.12 570.432 239.171 570.432C238.413 570.432 237.843 570.736 237.459 571.344C237.085 571.941 236.899 572.747 236.899 573.76C236.899 574.784 237.085 575.579 237.459 576.144C237.843 576.709 238.419 576.992 239.187 576.992ZM246.486 566.208C246.7 566.208 246.886 566.283 247.046 566.432C247.217 566.571 247.302 566.795 247.302 567.104C247.302 567.403 247.217 567.627 247.046 567.776C246.886 567.925 246.7 568 246.486 568C246.252 568 246.054 567.925 245.894 567.776C245.734 567.627 245.654 567.403 245.654 567.104C245.654 566.795 245.734 566.571 245.894 566.432C246.054 566.283 246.252 566.208 246.486 566.208ZM247.174 569.424V578H245.766V569.424H247.174ZM254.019 569.264C255.043 569.264 255.817 569.515 256.339 570.016C256.862 570.507 257.123 571.307 257.123 572.416V578H255.731V572.512C255.731 571.136 255.091 570.448 253.811 570.448C252.862 570.448 252.206 570.715 251.843 571.248C251.481 571.781 251.299 572.549 251.299 573.552V578H249.891V569.424H251.027L251.235 570.592H251.315C251.593 570.144 251.977 569.813 252.467 569.6C252.958 569.376 253.475 569.264 254.019 569.264ZM262.822 569.264C263.387 569.264 263.894 569.371 264.342 569.584C264.801 569.797 265.19 570.123 265.51 570.56H265.59L265.782 569.424H266.902V578.144C266.902 579.371 266.587 580.293 265.958 580.912C265.339 581.531 264.374 581.84 263.062 581.84C261.803 581.84 260.774 581.659 259.974 581.296V580C260.817 580.448 261.873 580.672 263.142 580.672C263.878 580.672 264.454 580.453 264.87 580.016C265.297 579.589 265.51 579.003 265.51 578.256V577.92C265.51 577.792 265.515 577.611 265.526 577.376C265.537 577.131 265.547 576.96 265.558 576.864H265.494C264.918 577.728 264.033 578.16 262.838 578.16C261.729 578.16 260.859 577.771 260.23 576.992C259.611 576.213 259.302 575.125 259.302 573.728C259.302 572.363 259.611 571.28 260.23 570.48C260.859 569.669 261.723 569.264 262.822 569.264ZM263.014 570.448C262.299 570.448 261.745 570.736 261.35 571.312C260.955 571.877 260.758 572.688 260.758 573.744C260.758 574.8 260.95 575.611 261.334 576.176C261.729 576.731 262.299 577.008 263.046 577.008C263.91 577.008 264.539 576.779 264.934 576.32C265.329 575.851 265.526 575.099 265.526 574.064V573.728C265.526 572.555 265.323 571.717 264.918 571.216C264.513 570.704 263.878 570.448 263.014 570.448ZM277.862 569.264C278.918 569.264 279.766 569.632 280.406 570.368C281.057 571.104 281.382 572.213 281.382 573.696C281.382 575.157 281.057 576.267 280.406 577.024C279.766 577.781 278.913 578.16 277.846 578.16C277.185 578.16 276.635 578.037 276.198 577.792C275.771 577.536 275.435 577.243 275.19 576.912H275.094C275.115 577.093 275.137 577.323 275.158 577.6C275.179 577.877 275.19 578.117 275.19 578.32V581.84H273.782V569.424H274.934L275.126 570.592H275.19C275.446 570.219 275.782 569.904 276.198 569.648C276.614 569.392 277.169 569.264 277.862 569.264ZM277.606 570.448C276.731 570.448 276.113 570.693 275.75 571.184C275.398 571.675 275.211 572.421 275.19 573.424V573.696C275.19 574.752 275.361 575.568 275.702 576.144C276.054 576.709 276.699 576.992 277.638 576.992C278.161 576.992 278.587 576.848 278.918 576.56C279.259 576.272 279.51 575.883 279.67 575.392C279.841 574.891 279.926 574.32 279.926 573.68C279.926 572.699 279.734 571.915 279.35 571.328C278.977 570.741 278.395 570.448 277.606 570.448ZM286.874 569.28C287.919 569.28 288.692 569.509 289.194 569.968C289.695 570.427 289.946 571.157 289.946 572.16V578H288.922L288.65 576.784H288.586C288.212 577.253 287.818 577.6 287.402 577.824C286.996 578.048 286.431 578.16 285.706 578.16C284.927 578.16 284.282 577.957 283.77 577.552C283.258 577.136 283.002 576.491 283.002 575.616C283.002 574.763 283.338 574.107 284.01 573.648C284.682 573.179 285.716 572.923 287.114 572.88L288.57 572.832V572.32C288.57 571.605 288.415 571.109 288.106 570.832C287.796 570.555 287.359 570.416 286.794 570.416C286.346 570.416 285.919 570.485 285.514 570.624C285.108 570.752 284.73 570.901 284.378 571.072L283.946 570.016C284.319 569.813 284.762 569.643 285.274 569.504C285.786 569.355 286.319 569.28 286.874 569.28ZM287.29 573.856C286.223 573.899 285.482 574.069 285.066 574.368C284.66 574.667 284.458 575.088 284.458 575.632C284.458 576.112 284.602 576.464 284.89 576.688C285.188 576.912 285.567 577.024 286.026 577.024C286.751 577.024 287.354 576.827 287.834 576.432C288.314 576.027 288.554 575.408 288.554 574.576V573.808L287.29 573.856ZM295.634 569.264C296.2 569.264 296.706 569.371 297.154 569.584C297.613 569.797 298.002 570.123 298.322 570.56H298.402L298.594 569.424H299.714V578.144C299.714 579.371 299.4 580.293 298.77 580.912C298.152 581.531 297.186 581.84 295.874 581.84C294.616 581.84 293.586 581.659 292.786 581.296V580C293.629 580.448 294.685 580.672 295.954 580.672C296.69 580.672 297.266 580.453 297.682 580.016C298.109 579.589 298.322 579.003 298.322 578.256V577.92C298.322 577.792 298.328 577.611 298.338 577.376C298.349 577.131 298.36 576.96 298.37 576.864H298.306C297.73 577.728 296.845 578.16 295.65 578.16C294.541 578.16 293.672 577.771 293.042 576.992C292.424 576.213 292.114 575.125 292.114 573.728C292.114 572.363 292.424 571.28 293.042 570.48C293.672 569.669 294.536 569.264 295.634 569.264ZM295.826 570.448C295.112 570.448 294.557 570.736 294.162 571.312C293.768 571.877 293.57 572.688 293.57 573.744C293.57 574.8 293.762 575.611 294.146 576.176C294.541 576.731 295.112 577.008 295.858 577.008C296.722 577.008 297.352 576.779 297.746 576.32C298.141 575.851 298.338 575.099 298.338 574.064V573.728C298.338 572.555 298.136 571.717 297.73 571.216C297.325 570.704 296.69 570.448 295.826 570.448ZM305.75 569.264C306.486 569.264 307.115 569.424 307.638 569.744C308.171 570.064 308.577 570.517 308.854 571.104C309.142 571.68 309.286 572.357 309.286 573.136V573.984H303.414C303.435 574.955 303.681 575.696 304.15 576.208C304.63 576.709 305.297 576.96 306.15 576.96C306.694 576.96 307.174 576.912 307.59 576.816C308.017 576.709 308.454 576.56 308.902 576.368V577.6C308.465 577.792 308.033 577.931 307.606 578.016C307.179 578.112 306.673 578.16 306.086 578.16C305.275 578.16 304.555 577.995 303.926 577.664C303.307 577.333 302.822 576.843 302.47 576.192C302.129 575.531 301.958 574.725 301.958 573.776C301.958 572.837 302.113 572.032 302.422 571.36C302.742 570.688 303.185 570.171 303.75 569.808C304.326 569.445 304.993 569.264 305.75 569.264ZM305.734 570.416C305.062 570.416 304.529 570.635 304.134 571.072C303.75 571.499 303.521 572.096 303.446 572.864H307.814C307.803 572.139 307.633 571.552 307.302 571.104C306.971 570.645 306.449 570.416 305.734 570.416ZM319.578 570.512H317.418V578H316.01V570.512H314.506V569.856L316.01 569.376V568.88C316.01 567.771 316.255 566.976 316.746 566.496C317.236 566.005 317.919 565.76 318.794 565.76C319.135 565.76 319.444 565.792 319.722 565.856C320.01 565.909 320.255 565.973 320.458 566.048L320.09 567.152C319.919 567.099 319.722 567.045 319.498 566.992C319.274 566.939 319.044 566.912 318.81 566.912C318.34 566.912 317.988 567.072 317.754 567.392C317.53 567.701 317.418 568.192 317.418 568.864V569.424H319.578V570.512ZM328.582 573.696C328.582 575.115 328.219 576.213 327.494 576.992C326.779 577.771 325.808 578.16 324.582 578.16C323.824 578.16 323.147 577.989 322.55 577.648C321.963 577.296 321.499 576.789 321.158 576.128C320.816 575.456 320.646 574.645 320.646 573.696C320.646 572.277 321.003 571.184 321.718 570.416C322.432 569.648 323.403 569.264 324.63 569.264C325.408 569.264 326.091 569.44 326.678 569.792C327.275 570.133 327.739 570.635 328.07 571.296C328.411 571.947 328.582 572.747 328.582 573.696ZM322.102 573.696C322.102 574.709 322.299 575.515 322.694 576.112C323.099 576.699 323.739 576.992 324.614 576.992C325.478 576.992 326.112 576.699 326.518 576.112C326.923 575.515 327.126 574.709 327.126 573.696C327.126 572.683 326.923 571.888 326.518 571.312C326.112 570.736 325.472 570.448 324.598 570.448C323.723 570.448 323.088 570.736 322.694 571.312C322.299 571.888 322.102 572.683 322.102 573.696ZM334.813 569.264C334.973 569.264 335.144 569.275 335.325 569.296C335.517 569.307 335.682 569.328 335.821 569.36L335.645 570.656C335.506 570.624 335.352 570.597 335.181 570.576C335.021 570.555 334.866 570.544 334.717 570.544C334.28 570.544 333.869 570.667 333.485 570.912C333.101 571.147 332.792 571.483 332.557 571.92C332.333 572.347 332.221 572.848 332.221 573.424V578H330.813V569.424H331.965L332.125 570.992H332.189C332.466 570.523 332.824 570.117 333.261 569.776C333.698 569.435 334.216 569.264 334.813 569.264ZM350.987 569.264C351.957 569.264 352.683 569.515 353.163 570.016C353.643 570.507 353.883 571.307 353.883 572.416V578H352.491V572.48C352.491 571.125 351.909 570.448 350.747 570.448C349.915 570.448 349.317 570.688 348.955 571.168C348.603 571.648 348.427 572.347 348.427 573.264V578H347.035V572.48C347.035 571.125 346.448 570.448 345.275 570.448C344.411 570.448 343.813 570.715 343.483 571.248C343.152 571.781 342.987 572.549 342.987 573.552V578H341.579V569.424H342.715L342.923 570.592H343.003C343.269 570.144 343.627 569.813 344.075 569.6C344.533 569.376 345.019 569.264 345.531 569.264C346.875 569.264 347.749 569.744 348.155 570.704H348.235C348.523 570.213 348.912 569.851 349.403 569.616C349.904 569.381 350.432 569.264 350.987 569.264ZM363.988 573.696C363.988 575.115 363.625 576.213 362.9 576.992C362.185 577.771 361.215 578.16 359.988 578.16C359.231 578.16 358.553 577.989 357.956 577.648C357.369 577.296 356.905 576.789 356.564 576.128C356.223 575.456 356.052 574.645 356.052 573.696C356.052 572.277 356.409 571.184 357.124 570.416C357.839 569.648 358.809 569.264 360.036 569.264C360.815 569.264 361.497 569.44 362.084 569.792C362.681 570.133 363.145 570.635 363.476 571.296C363.817 571.947 363.988 572.747 363.988 573.696ZM357.508 573.696C357.508 574.709 357.705 575.515 358.1 576.112C358.505 576.699 359.145 576.992 360.02 576.992C360.884 576.992 361.519 576.699 361.924 576.112C362.329 575.515 362.532 574.709 362.532 573.696C362.532 572.683 362.329 571.888 361.924 571.312C361.519 570.736 360.879 570.448 360.004 570.448C359.129 570.448 358.495 570.736 358.1 571.312C357.705 571.888 357.508 572.683 357.508 573.696ZM367.627 568.8C367.627 569.163 367.617 569.504 367.595 569.824C367.585 570.133 367.569 570.379 367.547 570.56H367.627C367.873 570.197 368.209 569.893 368.635 569.648C369.062 569.403 369.611 569.28 370.283 569.28C371.35 569.28 372.203 569.653 372.843 570.4C373.494 571.136 373.819 572.24 373.819 573.712C373.819 575.184 373.494 576.293 372.843 577.04C372.193 577.787 371.339 578.16 370.283 578.16C369.611 578.16 369.062 578.037 368.635 577.792C368.209 577.547 367.873 577.253 367.627 576.912H367.515L367.227 578H366.219V565.84H367.627V568.8ZM370.043 570.448C369.137 570.448 368.507 570.709 368.155 571.232C367.803 571.755 367.627 572.565 367.627 573.664V573.728C367.627 574.784 367.798 575.595 368.139 576.16C368.491 576.715 369.137 576.992 370.075 576.992C370.843 576.992 371.414 576.709 371.787 576.144C372.171 575.579 372.363 574.763 372.363 573.696C372.363 571.531 371.59 570.448 370.043 570.448ZM376.783 566.208C376.996 566.208 377.183 566.283 377.343 566.432C377.514 566.571 377.599 566.795 377.599 567.104C377.599 567.403 377.514 567.627 377.343 567.776C377.183 567.925 376.996 568 376.783 568C376.548 568 376.351 567.925 376.191 567.776C376.031 567.627 375.951 567.403 375.951 567.104C375.951 566.795 376.031 566.571 376.191 566.432C376.351 566.283 376.548 566.208 376.783 566.208ZM377.471 569.424V578H376.063V569.424H377.471ZM381.596 578H380.188V565.84H381.596V578ZM387.625 569.264C388.361 569.264 388.99 569.424 389.513 569.744C390.046 570.064 390.452 570.517 390.729 571.104C391.017 571.68 391.161 572.357 391.161 573.136V573.984H385.289C385.31 574.955 385.556 575.696 386.025 576.208C386.505 576.709 387.172 576.96 388.025 576.96C388.569 576.96 389.049 576.912 389.465 576.816C389.892 576.709 390.329 576.56 390.777 576.368V577.6C390.34 577.792 389.908 577.931 389.481 578.016C389.054 578.112 388.548 578.16 387.961 578.16C387.15 578.16 386.43 577.995 385.801 577.664C385.182 577.333 384.697 576.843 384.345 576.192C384.004 575.531 383.833 574.725 383.833 573.776C383.833 572.837 383.988 572.032 384.297 571.36C384.617 570.688 385.06 570.171 385.625 569.808C386.201 569.445 386.868 569.264 387.625 569.264ZM387.609 570.416C386.937 570.416 386.404 570.635 386.009 571.072C385.625 571.499 385.396 572.096 385.321 572.864H389.689C389.678 572.139 389.508 571.552 389.177 571.104C388.846 570.645 388.324 570.416 387.609 570.416ZM400.749 569.28C401.794 569.28 402.567 569.509 403.069 569.968C403.57 570.427 403.821 571.157 403.821 572.16V578H402.797L402.525 576.784H402.461C402.087 577.253 401.693 577.6 401.277 577.824C400.871 578.048 400.306 578.16 399.581 578.16C398.802 578.16 398.157 577.957 397.645 577.552C397.133 577.136 396.877 576.491 396.877 575.616C396.877 574.763 397.213 574.107 397.885 573.648C398.557 573.179 399.591 572.923 400.989 572.88L402.445 572.832V572.32C402.445 571.605 402.29 571.109 401.981 570.832C401.671 570.555 401.234 570.416 400.669 570.416C400.221 570.416 399.794 570.485 399.389 570.624C398.983 570.752 398.605 570.901 398.253 571.072L397.821 570.016C398.194 569.813 398.637 569.643 399.149 569.504C399.661 569.355 400.194 569.28 400.749 569.28ZM401.165 573.856C400.098 573.899 399.357 574.069 398.941 574.368C398.535 574.667 398.333 575.088 398.333 575.632C398.333 576.112 398.477 576.464 398.765 576.688C399.063 576.912 399.442 577.024 399.901 577.024C400.626 577.024 401.229 576.827 401.709 576.432C402.189 576.027 402.429 575.408 402.429 574.576V573.808L401.165 573.856ZM410.549 569.264C411.605 569.264 412.453 569.632 413.093 570.368C413.744 571.104 414.069 572.213 414.069 573.696C414.069 575.157 413.744 576.267 413.093 577.024C412.453 577.781 411.6 578.16 410.533 578.16C409.872 578.16 409.323 578.037 408.885 577.792C408.459 577.536 408.123 577.243 407.877 576.912H407.781C407.803 577.093 407.824 577.323 407.845 577.6C407.867 577.877 407.877 578.117 407.877 578.32V581.84H406.469V569.424H407.621L407.813 570.592H407.877C408.133 570.219 408.469 569.904 408.885 569.648C409.301 569.392 409.856 569.264 410.549 569.264ZM410.293 570.448C409.419 570.448 408.8 570.693 408.437 571.184C408.085 571.675 407.899 572.421 407.877 573.424V573.696C407.877 574.752 408.048 575.568 408.389 576.144C408.741 576.709 409.387 576.992 410.325 576.992C410.848 576.992 411.275 576.848 411.605 576.56C411.947 576.272 412.197 575.883 412.357 575.392C412.528 574.891 412.613 574.32 412.613 573.68C412.613 572.699 412.421 571.915 412.037 571.328C411.664 570.741 411.083 570.448 410.293 570.448ZM420.393 569.264C421.449 569.264 422.297 569.632 422.937 570.368C423.588 571.104 423.913 572.213 423.913 573.696C423.913 575.157 423.588 576.267 422.937 577.024C422.297 577.781 421.444 578.16 420.377 578.16C419.716 578.16 419.166 578.037 418.729 577.792C418.302 577.536 417.966 577.243 417.721 576.912H417.625C417.646 577.093 417.668 577.323 417.689 577.6C417.71 577.877 417.721 578.117 417.721 578.32V581.84H416.313V569.424H417.465L417.657 570.592H417.721C417.977 570.219 418.313 569.904 418.729 569.648C419.145 569.392 419.7 569.264 420.393 569.264ZM420.137 570.448C419.262 570.448 418.644 570.693 418.281 571.184C417.929 571.675 417.742 572.421 417.721 573.424V573.696C417.721 574.752 417.892 575.568 418.233 576.144C418.585 576.709 419.23 576.992 420.169 576.992C420.692 576.992 421.118 576.848 421.449 576.56C421.79 576.272 422.041 575.883 422.201 575.392C422.372 574.891 422.457 574.32 422.457 573.68C422.457 572.699 422.265 571.915 421.881 571.328C421.508 570.741 420.926 570.448 420.137 570.448Z" fill="white" fill-opacity="0.6"/>
<g filter="url(#filter1_d_38_533)">
<path d="M300.422 646.904C300.422 648.593 299.955 649.867 299.022 650.726C298.098 651.575 296.801 652 295.13 652H292.33V642.004H295.424C296.441 642.004 297.323 642.191 298.07 642.564C298.817 642.937 299.395 643.488 299.806 644.216C300.217 644.935 300.422 645.831 300.422 646.904ZM298.84 646.946C298.84 645.686 298.532 644.762 297.916 644.174C297.309 643.577 296.446 643.278 295.326 643.278H293.842V650.726H295.06C297.58 650.726 298.84 649.466 298.84 646.946ZM305.398 644.314C306.387 644.314 307.166 644.622 307.736 645.238C308.305 645.845 308.59 646.675 308.59 647.73V648.542H303.522C303.54 649.317 303.741 649.909 304.124 650.32C304.516 650.731 305.062 650.936 305.762 650.936C306.247 650.936 306.676 650.894 307.05 650.81C307.432 650.717 307.824 650.581 308.226 650.404V651.636C307.843 651.804 307.46 651.93 307.078 652.014C306.695 652.098 306.238 652.14 305.706 652.14C304.968 652.14 304.32 651.995 303.76 651.706C303.209 651.417 302.775 650.987 302.458 650.418C302.15 649.839 301.996 649.13 301.996 648.29C301.996 647.441 302.136 646.722 302.416 646.134C302.705 645.546 303.102 645.098 303.606 644.79C304.119 644.473 304.716 644.314 305.398 644.314ZM305.398 645.462C304.866 645.462 304.436 645.635 304.11 645.98C303.792 646.325 303.606 646.815 303.55 647.45H307.106C307.096 646.862 306.952 646.386 306.672 646.022C306.401 645.649 305.976 645.462 305.398 645.462ZM313.157 650.936C313.353 650.936 313.554 650.922 313.759 650.894C313.965 650.857 314.142 650.81 314.291 650.754V651.874C314.123 651.949 313.904 652.009 313.633 652.056C313.372 652.112 313.106 652.14 312.835 652.14C312.425 652.14 312.047 652.07 311.701 651.93C311.356 651.79 311.081 651.547 310.875 651.202C310.679 650.857 310.581 650.376 310.581 649.76V645.588H309.531V644.916L310.637 644.356L311.155 642.76H312.065V644.454H314.221V645.588H312.065V649.732C312.065 650.143 312.163 650.446 312.359 650.642C312.565 650.838 312.831 650.936 313.157 650.936ZM318.727 644.314C319.669 644.314 320.374 644.524 320.841 644.944C321.317 645.355 321.555 646.003 321.555 646.89V652H320.505L320.211 650.95H320.155C319.828 651.361 319.483 651.664 319.119 651.86C318.764 652.047 318.269 652.14 317.635 652.14C316.953 652.14 316.389 651.958 315.941 651.594C315.493 651.221 315.269 650.642 315.269 649.858C315.269 649.093 315.558 648.509 316.137 648.108C316.715 647.707 317.607 647.487 318.811 647.45L320.099 647.408V646.988C320.099 646.437 319.973 646.05 319.721 645.826C319.469 645.593 319.114 645.476 318.657 645.476C318.274 645.476 317.905 645.532 317.551 645.644C317.196 645.756 316.855 645.891 316.529 646.05L316.053 644.972C316.407 644.785 316.813 644.631 317.271 644.51C317.737 644.379 318.223 644.314 318.727 644.314ZM319.077 648.402C318.218 648.439 317.621 648.584 317.285 648.836C316.958 649.079 316.795 649.424 316.795 649.872C316.795 650.264 316.911 650.549 317.145 650.726C317.378 650.903 317.681 650.992 318.055 650.992C318.633 650.992 319.114 650.829 319.497 650.502C319.889 650.175 320.085 649.685 320.085 649.032V648.374L319.077 648.402ZM324.596 641.584C324.82 641.584 325.016 641.649 325.184 641.78C325.352 641.911 325.436 642.13 325.436 642.438C325.436 642.737 325.352 642.956 325.184 643.096C325.016 643.227 324.82 643.292 324.596 643.292C324.353 643.292 324.148 643.227 323.98 643.096C323.821 642.956 323.742 642.737 323.742 642.438C323.742 642.13 323.821 641.911 323.98 641.78C324.148 641.649 324.353 641.584 324.596 641.584ZM325.324 644.454V652H323.84V644.454H325.324ZM329.138 652H327.654V641.36H329.138V652Z" fill="white"/>
<path d="M280.5 628H341.5V626H280.5V628ZM341.5 665H280.5V667H341.5V665ZM280.5 665C270.283 665 262 656.717 262 646.5H260C260 657.822 269.178 667 280.5 667V665ZM360 646.5C360 656.717 351.717 665 341.5 665V667C352.822 667 362 657.822 362 646.5H360ZM341.5 628C351.717 628 360 636.283 360 646.5H362C362 635.178 352.822 626 341.5 626V628ZM280.5 626C269.178 626 260 635.178 260 646.5H262C262 636.283 270.283 628 280.5 628V626Z" fill="white"/>
</g>
<path d="M214 235C214 223.954 222.954 215 234 215H388C399.046 215 408 223.954 408 235V471H214V235Z" fill="#2C2C46" fill-opacity="0.5"/>
<rect x="234" y="83" width="154" height="26" rx="13" fill="#212136"/>
<rect x="264" y="123" width="94" height="26" rx="13" fill="#212136"/>
<defs>
<filter id="filter0_d_38_533" x="0" y="0" width="622" height="561" filterUnits="userSpaceOnUse" color-interpolation-filters="sRGB">
<feFlood flood-opacity="0" result="BackgroundImageFix"/>
<feColorMatrix in="SourceAlpha" type="matrix" values="0 0 0 0 0 0 0 0 0 0 0 0 0 0 0 0 0 0 127 0" result="hardAlpha"/>
<feOffset dy="30"/>
<feGaussianBlur stdDeviation="30"/>
<feColorMatrix type="matrix" values="0 0 0 0 0.374756 0 0 0 0 0.0864062 0 0 0 0 0.9875 0 0 0 0.03 0"/>
<feBlend mode="normal" in2="BackgroundImageFix" result="effect1_dropShadow_38_533"/>
<feBlend mode="normal" in="SourceGraphic" in2="effect1_dropShadow_38_533" result="shape"/>
</filter>
<filter id="filter1_d_38_533" x="231" y="612" width="160" height="99" filterUnits="userSpaceOnUse" color-interpolation-filters="sRGB">
<feFlood flood-opacity="0" result="BackgroundImageFix"/>
<feColorMatrix in="SourceAlpha" type="matrix" values="0 0 0 0 0 0 0 0 0 0 0 0 0 0 0 0 0 0 127 0" result="hardAlpha"/>
<feOffset dy="15"/>
<feGaussianBlur stdDeviation="15"/>
<feColorMatrix type="matrix" values="0 0 0 0 0 0 0 0 0 0 0 0 0 0 0 0 0 0 0.1 0"/>
<feBlend mode="normal" in2="BackgroundImageFix" result="effect1_dropShadow_38_533"/>
<feBlend mode="normal" in="SourceGraphic" in2="effect1_dropShadow_38_533" result="shape"/>
</filter>
</defs>
</svg>
