<svg width="622" height="711" viewBox="0 0 622 711" fill="none" xmlns="http://www.w3.org/2000/svg">
<g filter="url(#filter0_d_38_554)">
<rect x="60" y="30" width="502" height="441" rx="3" fill="#161629"/>
<rect x="60.5" y="30.5" width="501" height="440" rx="2.5" stroke="white" stroke-opacity="0.1"/>
</g>
<path d="M163.652 536H160.632V524.24H156.752V521.72H167.532V524.24H163.652V536ZM172.474 523.9C172.474 524.433 172.454 524.947 172.414 525.44C172.387 525.933 172.36 526.28 172.334 526.48H172.494C172.84 525.92 173.287 525.513 173.834 525.26C174.38 525.007 174.987 524.88 175.654 524.88C176.84 524.88 177.787 525.2 178.494 525.84C179.214 526.467 179.574 527.48 179.574 528.88V536H176.594V529.62C176.594 528.047 176.007 527.26 174.834 527.26C173.94 527.26 173.32 527.573 172.974 528.2C172.64 528.813 172.474 529.7 172.474 530.86V536H169.494V520.8H172.474V523.9ZM187.138 524.88C188.645 524.88 189.838 525.313 190.718 526.18C191.598 527.033 192.038 528.253 192.038 529.84V531.28H184.998C185.025 532.12 185.271 532.78 185.738 533.26C186.218 533.74 186.878 533.98 187.718 533.98C188.425 533.98 189.065 533.913 189.638 533.78C190.211 533.633 190.805 533.413 191.418 533.12V535.42C190.885 535.687 190.318 535.88 189.718 536C189.131 536.133 188.418 536.2 187.578 536.2C186.485 536.2 185.518 536 184.678 535.6C183.838 535.187 183.178 534.567 182.698 533.74C182.218 532.913 181.978 531.873 181.978 530.62C181.978 529.34 182.191 528.28 182.618 527.44C183.058 526.587 183.665 525.947 184.438 525.52C185.211 525.093 186.111 524.88 187.138 524.88ZM187.158 527C186.585 527 186.105 527.187 185.718 527.56C185.345 527.933 185.125 528.513 185.058 529.3H189.238C189.225 528.633 189.051 528.087 188.718 527.66C188.385 527.22 187.865 527 187.158 527ZM211.73 528.72C211.73 531.133 211.043 532.953 209.67 534.18C208.31 535.393 206.397 536 203.93 536H199.89V521.72H204.37C205.863 521.72 207.157 521.987 208.25 522.52C209.357 523.053 210.21 523.84 210.81 524.88C211.423 525.907 211.73 527.187 211.73 528.72ZM208.59 528.8C208.59 527.213 208.243 526.053 207.55 525.32C206.857 524.573 205.85 524.2 204.53 524.2H202.91V533.5H204.21C207.13 533.5 208.59 531.933 208.59 528.8ZM218.955 524.88C220.461 524.88 221.655 525.313 222.535 526.18C223.415 527.033 223.855 528.253 223.855 529.84V531.28H216.815C216.841 532.12 217.088 532.78 217.555 533.26C218.035 533.74 218.695 533.98 219.535 533.98C220.241 533.98 220.881 533.913 221.455 533.78C222.028 533.633 222.621 533.413 223.235 533.12V535.42C222.701 535.687 222.135 535.88 221.535 536C220.948 536.133 220.235 536.2 219.395 536.2C218.301 536.2 217.335 536 216.495 535.6C215.655 535.187 214.995 534.567 214.515 533.74C214.035 532.913 213.795 531.873 213.795 530.62C213.795 529.34 214.008 528.28 214.435 527.44C214.875 526.587 215.481 525.947 216.255 525.52C217.028 525.093 217.928 524.88 218.955 524.88ZM218.975 527C218.401 527 217.921 527.187 217.535 527.56C217.161 527.933 216.941 528.513 216.875 529.3H221.055C221.041 528.633 220.868 528.087 220.535 527.66C220.201 527.22 219.681 527 218.975 527ZM233.891 532.76C233.891 533.867 233.498 534.72 232.711 535.32C231.938 535.907 230.778 536.2 229.231 536.2C228.471 536.2 227.818 536.147 227.271 536.04C226.724 535.947 226.178 535.787 225.631 535.56V533.1C226.218 533.367 226.851 533.587 227.531 533.76C228.211 533.933 228.811 534.02 229.331 534.02C229.918 534.02 230.331 533.933 230.571 533.76C230.824 533.587 230.951 533.36 230.951 533.08C230.951 532.893 230.898 532.727 230.791 532.58C230.698 532.433 230.484 532.267 230.151 532.08C229.818 531.893 229.298 531.653 228.591 531.36C227.911 531.067 227.351 530.78 226.911 530.5C226.471 530.207 226.144 529.86 225.931 529.46C225.718 529.047 225.611 528.533 225.611 527.92C225.611 526.907 226.004 526.147 226.791 525.64C227.578 525.133 228.624 524.88 229.931 524.88C230.611 524.88 231.258 524.947 231.871 525.08C232.484 525.213 233.118 525.433 233.771 525.74L232.871 527.88C232.338 527.653 231.831 527.467 231.351 527.32C230.871 527.16 230.384 527.08 229.891 527.08C229.011 527.08 228.571 527.32 228.571 527.8C228.571 527.973 228.624 528.133 228.731 528.28C228.851 528.413 229.071 528.56 229.391 528.72C229.724 528.88 230.211 529.093 230.851 529.36C231.478 529.613 232.018 529.88 232.471 530.16C232.924 530.427 233.271 530.767 233.511 531.18C233.764 531.58 233.891 532.107 233.891 532.76ZM239.192 527.6C239.192 528.013 239.172 528.427 239.132 528.84C239.106 529.24 239.072 529.647 239.032 530.06H239.072C239.272 529.78 239.479 529.5 239.692 529.22C239.906 528.927 240.132 528.653 240.372 528.4L243.432 525.08H246.792L242.452 529.82L247.052 536H243.612L240.472 531.58L239.192 532.6V536H236.212V520.8H239.192V527.6ZM253.215 533.82C253.548 533.82 253.868 533.787 254.175 533.72C254.481 533.653 254.788 533.573 255.095 533.48V535.7C254.775 535.833 254.375 535.947 253.895 536.04C253.428 536.147 252.915 536.2 252.355 536.2C251.701 536.2 251.115 536.093 250.595 535.88C250.088 535.667 249.681 535.3 249.375 534.78C249.081 534.247 248.935 533.513 248.935 532.58V527.32H247.515V526.06L249.155 525.06L250.015 522.76H251.915V525.08H254.975V527.32H251.915V532.58C251.915 532.993 252.035 533.307 252.275 533.52C252.515 533.72 252.828 533.82 253.215 533.82ZM267.207 530.52C267.207 532.333 266.727 533.733 265.767 534.72C264.82 535.707 263.527 536.2 261.887 536.2C260.873 536.2 259.967 535.98 259.167 535.54C258.38 535.1 257.76 534.46 257.307 533.62C256.853 532.767 256.627 531.733 256.627 530.52C256.627 528.707 257.1 527.313 258.047 526.34C258.993 525.367 260.293 524.88 261.947 524.88C262.973 524.88 263.88 525.1 264.667 525.54C265.453 525.98 266.073 526.62 266.527 527.46C266.98 528.287 267.207 529.307 267.207 530.52ZM259.667 530.52C259.667 531.6 259.84 532.42 260.187 532.98C260.547 533.527 261.127 533.8 261.927 533.8C262.713 533.8 263.28 533.527 263.627 532.98C263.987 532.42 264.167 531.6 264.167 530.52C264.167 529.44 263.987 528.633 263.627 528.1C263.28 527.553 262.707 527.28 261.907 527.28C261.12 527.28 260.547 527.553 260.187 528.1C259.84 528.633 259.667 529.44 259.667 530.52ZM275.749 524.88C276.976 524.88 277.969 525.36 278.729 526.32C279.489 527.267 279.869 528.667 279.869 530.52C279.869 532.373 279.476 533.787 278.689 534.76C277.903 535.72 276.896 536.2 275.669 536.2C274.883 536.2 274.256 536.06 273.789 535.78C273.323 535.487 272.943 535.16 272.649 534.8H272.489C272.596 535.36 272.649 535.893 272.649 536.4V540.8H269.669V525.08H272.089L272.509 526.5H272.649C272.943 526.06 273.336 525.68 273.829 525.36C274.323 525.04 274.963 524.88 275.749 524.88ZM274.789 527.26C274.016 527.26 273.469 527.5 273.149 527.98C272.843 528.46 272.676 529.193 272.649 530.18V530.5C272.649 531.553 272.803 532.367 273.109 532.94C273.429 533.5 274.003 533.78 274.829 533.78C275.509 533.78 276.009 533.5 276.329 532.94C276.663 532.367 276.829 531.547 276.829 530.48C276.829 528.333 276.149 527.26 274.789 527.26ZM296.501 536L295.461 532.6H290.261L289.221 536H285.961L291.001 521.66H294.701L299.761 536H296.501ZM293.701 526.74C293.634 526.513 293.548 526.227 293.441 525.88C293.334 525.533 293.228 525.18 293.121 524.82C293.014 524.46 292.928 524.147 292.861 523.88C292.794 524.147 292.701 524.48 292.581 524.88C292.474 525.267 292.368 525.64 292.261 526C292.168 526.347 292.094 526.593 292.041 526.74L291.021 530.06H294.741L293.701 526.74ZM307.41 524.88C308.636 524.88 309.63 525.36 310.39 526.32C311.15 527.267 311.53 528.667 311.53 530.52C311.53 532.373 311.136 533.787 310.35 534.76C309.563 535.72 308.556 536.2 307.33 536.2C306.543 536.2 305.916 536.06 305.45 535.78C304.983 535.487 304.603 535.16 304.31 534.8H304.15C304.256 535.36 304.31 535.893 304.31 536.4V540.8H301.33V525.08H303.75L304.17 526.5H304.31C304.603 526.06 304.996 525.68 305.49 525.36C305.983 525.04 306.623 524.88 307.41 524.88ZM306.45 527.26C305.676 527.26 305.13 527.5 304.81 527.98C304.503 528.46 304.336 529.193 304.31 530.18V530.5C304.31 531.553 304.463 532.367 304.77 532.94C305.09 533.5 305.663 533.78 306.49 533.78C307.17 533.78 307.67 533.5 307.99 532.94C308.323 532.367 308.49 531.547 308.49 530.48C308.49 528.333 307.81 527.26 306.45 527.26ZM320.066 524.88C321.292 524.88 322.286 525.36 323.046 526.32C323.806 527.267 324.186 528.667 324.186 530.52C324.186 532.373 323.792 533.787 323.006 534.76C322.219 535.72 321.212 536.2 319.986 536.2C319.199 536.2 318.572 536.06 318.106 535.78C317.639 535.487 317.259 535.16 316.966 534.8H316.806C316.912 535.36 316.966 535.893 316.966 536.4V540.8H313.986V525.08H316.406L316.826 526.5H316.966C317.259 526.06 317.652 525.68 318.146 525.36C318.639 525.04 319.279 524.88 320.066 524.88ZM319.106 527.26C318.332 527.26 317.786 527.5 317.466 527.98C317.159 528.46 316.992 529.193 316.966 530.18V530.5C316.966 531.553 317.119 532.367 317.426 532.94C317.746 533.5 318.319 533.78 319.146 533.78C319.826 533.78 320.326 533.5 320.646 532.94C320.979 532.367 321.146 531.547 321.146 530.48C321.146 528.333 320.466 527.26 319.106 527.26ZM332.077 536V521.72H335.097V533.5H340.897V536H332.077ZM347.626 524.86C349.093 524.86 350.213 525.18 350.986 525.82C351.773 526.447 352.166 527.413 352.166 528.72V536H350.086L349.506 534.52H349.426C348.959 535.107 348.466 535.533 347.946 535.8C347.426 536.067 346.713 536.2 345.806 536.2C344.833 536.2 344.026 535.92 343.386 535.36C342.746 534.787 342.426 533.913 342.426 532.74C342.426 531.58 342.833 530.727 343.646 530.18C344.459 529.62 345.679 529.313 347.306 529.26L349.206 529.2V528.72C349.206 528.147 349.053 527.727 348.746 527.46C348.453 527.193 348.039 527.06 347.506 527.06C346.973 527.06 346.453 527.14 345.946 527.3C345.439 527.447 344.933 527.633 344.426 527.86L343.446 525.84C344.033 525.533 344.679 525.293 345.386 525.12C346.106 524.947 346.853 524.86 347.626 524.86ZM348.046 530.98C347.086 531.007 346.419 531.18 346.046 531.5C345.673 531.82 345.486 532.24 345.486 532.76C345.486 533.213 345.619 533.54 345.886 533.74C346.153 533.927 346.499 534.02 346.926 534.02C347.566 534.02 348.106 533.833 348.546 533.46C348.986 533.073 349.206 532.533 349.206 531.84V530.94L348.046 530.98ZM361.416 524.88C362.59 524.88 363.53 525.2 364.236 525.84C364.943 526.467 365.296 527.48 365.296 528.88V536H362.316V529.62C362.316 528.833 362.176 528.247 361.896 527.86C361.616 527.46 361.17 527.26 360.556 527.26C359.65 527.26 359.03 527.573 358.696 528.2C358.363 528.813 358.196 529.7 358.196 530.86V536H355.216V525.08H357.496L357.896 526.48H358.056C358.403 525.92 358.876 525.513 359.476 525.26C360.09 525.007 360.736 524.88 361.416 524.88ZM371.821 536.2C370.607 536.2 369.614 535.727 368.841 534.78C368.081 533.82 367.701 532.413 367.701 530.56C367.701 528.693 368.087 527.28 368.861 526.32C369.634 525.36 370.647 524.88 371.901 524.88C372.687 524.88 373.334 525.033 373.841 525.34C374.347 525.647 374.747 526.027 375.041 526.48H375.141C375.101 526.267 375.054 525.96 375.001 525.56C374.947 525.147 374.921 524.727 374.921 524.3V520.8H377.901V536H375.621L375.041 534.58H374.921C374.627 535.033 374.234 535.42 373.741 535.74C373.247 536.047 372.607 536.2 371.821 536.2ZM372.861 533.82C373.687 533.82 374.267 533.58 374.601 533.1C374.934 532.607 375.107 531.873 375.121 530.9V530.58C375.121 529.513 374.954 528.7 374.621 528.14C374.301 527.58 373.701 527.3 372.821 527.3C372.167 527.3 371.654 527.587 371.281 528.16C370.907 528.72 370.721 529.533 370.721 530.6C370.721 531.667 370.907 532.473 371.281 533.02C371.654 533.553 372.181 533.82 372.861 533.82ZM382.517 520.8C382.957 520.8 383.337 520.907 383.657 521.12C383.977 521.32 384.137 521.7 384.137 522.26C384.137 522.807 383.977 523.187 383.657 523.4C383.337 523.613 382.957 523.72 382.517 523.72C382.064 523.72 381.677 523.613 381.357 523.4C381.05 523.187 380.897 522.807 380.897 522.26C380.897 521.7 381.05 521.32 381.357 521.12C381.677 520.907 382.064 520.8 382.517 520.8ZM383.997 525.08V536H381.017V525.08H383.997ZM393.311 524.88C394.484 524.88 395.424 525.2 396.131 525.84C396.837 526.467 397.191 527.48 397.191 528.88V536H394.211V529.62C394.211 528.833 394.071 528.247 393.791 527.86C393.511 527.46 393.064 527.26 392.451 527.26C391.544 527.26 390.924 527.573 390.591 528.2C390.257 528.813 390.091 529.7 390.091 530.86V536H387.111V525.08H389.391L389.791 526.48H389.951C390.297 525.92 390.771 525.513 391.371 525.26C391.984 525.007 392.631 524.88 393.311 524.88ZM403.795 524.88C405.142 524.88 406.195 525.413 406.955 526.48H407.035L407.275 525.08H409.795V536.02C409.795 537.58 409.335 538.767 408.415 539.58C407.495 540.393 406.135 540.8 404.335 540.8C403.562 540.8 402.842 540.753 402.175 540.66C401.522 540.567 400.882 540.4 400.255 540.16V537.78C401.602 538.34 403.022 538.62 404.515 538.62C406.049 538.62 406.815 537.793 406.815 536.14V535.92C406.815 535.693 406.822 535.46 406.835 535.22C406.862 534.98 406.882 534.767 406.895 534.58H406.815C406.442 535.153 405.995 535.567 405.475 535.82C404.955 536.073 404.369 536.2 403.715 536.2C402.422 536.2 401.409 535.707 400.675 534.72C399.955 533.72 399.595 532.333 399.595 530.56C399.595 528.773 399.969 527.38 400.715 526.38C401.462 525.38 402.489 524.88 403.795 524.88ZM404.735 527.3C403.335 527.3 402.635 528.4 402.635 530.6C402.635 532.773 403.349 533.86 404.775 533.86C405.535 533.86 406.095 533.647 406.455 533.22C406.829 532.78 407.015 532.02 407.015 530.94V530.58C407.015 529.407 406.835 528.567 406.475 528.06C406.115 527.553 405.535 527.3 404.735 527.3ZM422.907 521.72C424.747 521.72 426.087 522.12 426.927 522.92C427.78 523.707 428.207 524.793 428.207 526.18C428.207 527.007 428.034 527.787 427.687 528.52C427.34 529.24 426.76 529.82 425.947 530.26C425.147 530.7 424.054 530.92 422.667 530.92H421.367V536H418.347V521.72H422.907ZM422.747 524.2H421.367V528.44H422.367C423.22 528.44 423.894 528.273 424.387 527.94C424.894 527.593 425.147 527.04 425.147 526.28C425.147 524.893 424.347 524.2 422.747 524.2ZM435.145 524.86C436.612 524.86 437.732 525.18 438.505 525.82C439.292 526.447 439.685 527.413 439.685 528.72V536H437.605L437.025 534.52H436.945C436.479 535.107 435.985 535.533 435.465 535.8C434.945 536.067 434.232 536.2 433.325 536.2C432.352 536.2 431.545 535.92 430.905 535.36C430.265 534.787 429.945 533.913 429.945 532.74C429.945 531.58 430.352 530.727 431.165 530.18C431.979 529.62 433.199 529.313 434.825 529.26L436.725 529.2V528.72C436.725 528.147 436.572 527.727 436.265 527.46C435.972 527.193 435.559 527.06 435.025 527.06C434.492 527.06 433.972 527.14 433.465 527.3C432.959 527.447 432.452 527.633 431.945 527.86L430.965 525.84C431.552 525.533 432.199 525.293 432.905 525.12C433.625 524.947 434.372 524.86 435.145 524.86ZM435.565 530.98C434.605 531.007 433.939 531.18 433.565 531.5C433.192 531.82 433.005 532.24 433.005 532.76C433.005 533.213 433.139 533.54 433.405 533.74C433.672 533.927 434.019 534.02 434.445 534.02C435.085 534.02 435.625 533.833 436.065 533.46C436.505 533.073 436.725 532.533 436.725 531.84V530.94L435.565 530.98ZM446.276 524.88C447.622 524.88 448.676 525.413 449.436 526.48H449.516L449.756 525.08H452.276V536.02C452.276 537.58 451.816 538.767 450.896 539.58C449.976 540.393 448.616 540.8 446.816 540.8C446.042 540.8 445.322 540.753 444.656 540.66C444.002 540.567 443.362 540.4 442.736 540.16V537.78C444.082 538.34 445.502 538.62 446.996 538.62C448.529 538.62 449.296 537.793 449.296 536.14V535.92C449.296 535.693 449.302 535.46 449.316 535.22C449.342 534.98 449.362 534.767 449.376 534.58H449.296C448.922 535.153 448.476 535.567 447.956 535.82C447.436 536.073 446.849 536.2 446.196 536.2C444.902 536.2 443.889 535.707 443.156 534.72C442.436 533.72 442.076 532.333 442.076 530.56C442.076 528.773 442.449 527.38 443.196 526.38C443.942 525.38 444.969 524.88 446.276 524.88ZM447.216 527.3C445.816 527.3 445.116 528.4 445.116 530.6C445.116 532.773 445.829 533.86 447.256 533.86C448.016 533.86 448.576 533.647 448.936 533.22C449.309 532.78 449.496 532.02 449.496 530.94V530.58C449.496 529.407 449.316 528.567 448.956 528.06C448.596 527.553 448.016 527.3 447.216 527.3ZM459.892 524.88C461.399 524.88 462.592 525.313 463.472 526.18C464.352 527.033 464.792 528.253 464.792 529.84V531.28H457.752C457.779 532.12 458.025 532.78 458.492 533.26C458.972 533.74 459.632 533.98 460.472 533.98C461.179 533.98 461.819 533.913 462.392 533.78C462.965 533.633 463.559 533.413 464.172 533.12V535.42C463.639 535.687 463.072 535.88 462.472 536C461.885 536.133 461.172 536.2 460.332 536.2C459.239 536.2 458.272 536 457.432 535.6C456.592 535.187 455.932 534.567 455.452 533.74C454.972 532.913 454.732 531.873 454.732 530.62C454.732 529.34 454.945 528.28 455.372 527.44C455.812 526.587 456.419 525.947 457.192 525.52C457.965 525.093 458.865 524.88 459.892 524.88ZM459.912 527C459.339 527 458.859 527.187 458.472 527.56C458.099 527.933 457.879 528.513 457.812 529.3H461.992C461.979 528.633 461.805 528.087 461.472 527.66C461.139 527.22 460.619 527 459.912 527Z" fill="white"/>
<path d="M202.111 578L200.735 574.464H196.207L194.847 578H193.391L197.855 566.528H199.151L203.599 578H202.111ZM199.023 569.728C198.991 569.643 198.937 569.488 198.863 569.264C198.788 569.04 198.713 568.811 198.639 568.576C198.575 568.331 198.521 568.144 198.479 568.016C198.404 568.347 198.319 568.672 198.223 568.992C198.127 569.301 198.047 569.547 197.983 569.728L196.687 573.184H200.303L199.023 569.728ZM210.534 578H209.126V565.84H210.534V578ZM216.499 569.28C217.544 569.28 218.317 569.509 218.819 569.968C219.32 570.427 219.571 571.157 219.571 572.16V578H218.547L218.275 576.784H218.211C217.837 577.253 217.443 577.6 217.027 577.824C216.621 578.048 216.056 578.16 215.331 578.16C214.552 578.16 213.907 577.957 213.395 577.552C212.883 577.136 212.627 576.491 212.627 575.616C212.627 574.763 212.963 574.107 213.635 573.648C214.307 573.179 215.341 572.923 216.739 572.88L218.195 572.832V572.32C218.195 571.605 218.04 571.109 217.731 570.832C217.421 570.555 216.984 570.416 216.419 570.416C215.971 570.416 215.544 570.485 215.139 570.624C214.733 570.752 214.355 570.901 214.003 571.072L213.571 570.016C213.944 569.813 214.387 569.643 214.899 569.504C215.411 569.355 215.944 569.28 216.499 569.28ZM216.915 573.856C215.848 573.899 215.107 574.069 214.691 574.368C214.285 574.667 214.083 575.088 214.083 575.632C214.083 576.112 214.227 576.464 214.515 576.688C214.813 576.912 215.192 577.024 215.651 577.024C216.376 577.024 216.979 576.827 217.459 576.432C217.939 576.027 218.179 575.408 218.179 574.576V573.808L216.915 573.856ZM226.347 569.264C227.371 569.264 228.145 569.515 228.667 570.016C229.19 570.507 229.451 571.307 229.451 572.416V578H228.059V572.512C228.059 571.136 227.419 570.448 226.139 570.448C225.19 570.448 224.534 570.715 224.171 571.248C223.809 571.781 223.627 572.549 223.627 573.552V578H222.219V569.424H223.355L223.563 570.592H223.643C223.921 570.144 224.305 569.813 224.795 569.6C225.286 569.376 225.803 569.264 226.347 569.264ZM235.15 578.16C234.083 578.16 233.23 577.792 232.59 577.056C231.95 576.309 231.63 575.2 231.63 573.728C231.63 572.256 231.95 571.147 232.59 570.4C233.241 569.643 234.099 569.264 235.166 569.264C235.827 569.264 236.366 569.387 236.782 569.632C237.209 569.877 237.555 570.176 237.822 570.528H237.918C237.907 570.389 237.886 570.187 237.854 569.92C237.833 569.643 237.822 569.424 237.822 569.264V565.84H239.23V578H238.094L237.886 576.848H237.822C237.566 577.211 237.225 577.52 236.798 577.776C236.371 578.032 235.822 578.16 235.15 578.16ZM235.374 576.992C236.281 576.992 236.915 576.747 237.278 576.256C237.651 575.755 237.838 575.003 237.838 574V573.744C237.838 572.677 237.662 571.861 237.31 571.296C236.958 570.72 236.307 570.432 235.358 570.432C234.601 570.432 234.03 570.736 233.646 571.344C233.273 571.941 233.086 572.747 233.086 573.76C233.086 574.784 233.273 575.579 233.646 576.144C234.03 576.709 234.606 576.992 235.374 576.992ZM242.674 566.208C242.887 566.208 243.074 566.283 243.234 566.432C243.404 566.571 243.49 566.795 243.49 567.104C243.49 567.403 243.404 567.627 243.234 567.776C243.074 567.925 242.887 568 242.674 568C242.439 568 242.242 567.925 242.082 567.776C241.922 567.627 241.842 567.403 241.842 567.104C241.842 566.795 241.922 566.571 242.082 566.432C242.242 566.283 242.439 566.208 242.674 566.208ZM243.362 569.424V578H241.954V569.424H243.362ZM250.207 569.264C251.231 569.264 252.004 569.515 252.527 570.016C253.049 570.507 253.311 571.307 253.311 572.416V578H251.919V572.512C251.919 571.136 251.279 570.448 249.999 570.448C249.049 570.448 248.393 570.715 248.031 571.248C247.668 571.781 247.487 572.549 247.487 573.552V578H246.079V569.424H247.215L247.423 570.592H247.503C247.78 570.144 248.164 569.813 248.655 569.6C249.145 569.376 249.663 569.264 250.207 569.264ZM259.009 569.264C259.575 569.264 260.081 569.371 260.529 569.584C260.988 569.797 261.377 570.123 261.697 570.56H261.777L261.969 569.424H263.089V578.144C263.089 579.371 262.775 580.293 262.145 580.912C261.527 581.531 260.561 581.84 259.249 581.84C257.991 581.84 256.961 581.659 256.161 581.296V580C257.004 580.448 258.06 580.672 259.329 580.672C260.065 580.672 260.641 580.453 261.057 580.016C261.484 579.589 261.697 579.003 261.697 578.256V577.92C261.697 577.792 261.703 577.611 261.713 577.376C261.724 577.131 261.735 576.96 261.745 576.864H261.681C261.105 577.728 260.22 578.16 259.025 578.16C257.916 578.16 257.047 577.771 256.417 576.992C255.799 576.213 255.489 575.125 255.489 573.728C255.489 572.363 255.799 571.28 256.417 570.48C257.047 569.669 257.911 569.264 259.009 569.264ZM259.201 570.448C258.487 570.448 257.932 570.736 257.537 571.312C257.143 571.877 256.945 572.688 256.945 573.744C256.945 574.8 257.137 575.611 257.521 576.176C257.916 576.731 258.487 577.008 259.233 577.008C260.097 577.008 260.727 576.779 261.121 576.32C261.516 575.851 261.713 575.099 261.713 574.064V573.728C261.713 572.555 261.511 571.717 261.105 571.216C260.7 570.704 260.065 570.448 259.201 570.448ZM274.049 569.264C275.105 569.264 275.953 569.632 276.593 570.368C277.244 571.104 277.569 572.213 277.569 573.696C277.569 575.157 277.244 576.267 276.593 577.024C275.953 577.781 275.1 578.16 274.033 578.16C273.372 578.16 272.823 578.037 272.385 577.792C271.959 577.536 271.623 577.243 271.377 576.912H271.281C271.303 577.093 271.324 577.323 271.345 577.6C271.367 577.877 271.377 578.117 271.377 578.32V581.84H269.969V569.424H271.121L271.313 570.592H271.377C271.633 570.219 271.969 569.904 272.385 569.648C272.801 569.392 273.356 569.264 274.049 569.264ZM273.793 570.448C272.919 570.448 272.3 570.693 271.937 571.184C271.585 571.675 271.399 572.421 271.377 573.424V573.696C271.377 574.752 271.548 575.568 271.889 576.144C272.241 576.709 272.887 576.992 273.825 576.992C274.348 576.992 274.775 576.848 275.105 576.56C275.447 576.272 275.697 575.883 275.857 575.392C276.028 574.891 276.113 574.32 276.113 573.68C276.113 572.699 275.921 571.915 275.537 571.328C275.164 570.741 274.583 570.448 273.793 570.448ZM283.061 569.28C284.106 569.28 284.88 569.509 285.381 569.968C285.882 570.427 286.133 571.157 286.133 572.16V578H285.109L284.837 576.784H284.773C284.4 577.253 284.005 577.6 283.589 577.824C283.184 578.048 282.618 578.16 281.893 578.16C281.114 578.16 280.469 577.957 279.957 577.552C279.445 577.136 279.189 576.491 279.189 575.616C279.189 574.763 279.525 574.107 280.197 573.648C280.869 573.179 281.904 572.923 283.301 572.88L284.757 572.832V572.32C284.757 571.605 284.602 571.109 284.293 570.832C283.984 570.555 283.546 570.416 282.981 570.416C282.533 570.416 282.106 570.485 281.701 570.624C281.296 570.752 280.917 570.901 280.565 571.072L280.133 570.016C280.506 569.813 280.949 569.643 281.461 569.504C281.973 569.355 282.506 569.28 283.061 569.28ZM283.477 573.856C282.41 573.899 281.669 574.069 281.253 574.368C280.848 574.667 280.645 575.088 280.645 575.632C280.645 576.112 280.789 576.464 281.077 576.688C281.376 576.912 281.754 577.024 282.213 577.024C282.938 577.024 283.541 576.827 284.021 576.432C284.501 576.027 284.741 575.408 284.741 574.576V573.808L283.477 573.856ZM291.822 569.264C292.387 569.264 292.894 569.371 293.342 569.584C293.801 569.797 294.19 570.123 294.51 570.56H294.59L294.782 569.424H295.902V578.144C295.902 579.371 295.587 580.293 294.958 580.912C294.339 581.531 293.374 581.84 292.062 581.84C290.803 581.84 289.774 581.659 288.974 581.296V580C289.817 580.448 290.873 580.672 292.142 580.672C292.878 580.672 293.454 580.453 293.87 580.016C294.297 579.589 294.51 579.003 294.51 578.256V577.92C294.51 577.792 294.515 577.611 294.526 577.376C294.537 577.131 294.547 576.96 294.558 576.864H294.494C293.918 577.728 293.033 578.16 291.838 578.16C290.729 578.16 289.859 577.771 289.23 576.992C288.611 576.213 288.302 575.125 288.302 573.728C288.302 572.363 288.611 571.28 289.23 570.48C289.859 569.669 290.723 569.264 291.822 569.264ZM292.014 570.448C291.299 570.448 290.745 570.736 290.35 571.312C289.955 571.877 289.758 572.688 289.758 573.744C289.758 574.8 289.95 575.611 290.334 576.176C290.729 576.731 291.299 577.008 292.046 577.008C292.91 577.008 293.539 576.779 293.934 576.32C294.329 575.851 294.526 575.099 294.526 574.064V573.728C294.526 572.555 294.323 571.717 293.918 571.216C293.513 570.704 292.878 570.448 292.014 570.448ZM301.938 569.264C302.674 569.264 303.303 569.424 303.826 569.744C304.359 570.064 304.764 570.517 305.042 571.104C305.33 571.68 305.474 572.357 305.474 573.136V573.984H299.602C299.623 574.955 299.868 575.696 300.338 576.208C300.818 576.709 301.484 576.96 302.338 576.96C302.882 576.96 303.362 576.912 303.778 576.816C304.204 576.709 304.642 576.56 305.09 576.368V577.6C304.652 577.792 304.22 577.931 303.794 578.016C303.367 578.112 302.86 578.16 302.274 578.16C301.463 578.16 300.743 577.995 300.114 577.664C299.495 577.333 299.01 576.843 298.658 576.192C298.316 575.531 298.146 574.725 298.146 573.776C298.146 572.837 298.3 572.032 298.61 571.36C298.93 570.688 299.372 570.171 299.938 569.808C300.514 569.445 301.18 569.264 301.938 569.264ZM301.922 570.416C301.25 570.416 300.716 570.635 300.322 571.072C299.938 571.499 299.708 572.096 299.634 572.864H304.002C303.991 572.139 303.82 571.552 303.49 571.104C303.159 570.645 302.636 570.416 301.922 570.416ZM315.765 570.512H313.605V578H312.197V570.512H310.693V569.856L312.197 569.376V568.88C312.197 567.771 312.442 566.976 312.933 566.496C313.424 566.005 314.106 565.76 314.981 565.76C315.322 565.76 315.632 565.792 315.909 565.856C316.197 565.909 316.442 565.973 316.645 566.048L316.277 567.152C316.106 567.099 315.909 567.045 315.685 566.992C315.461 566.939 315.232 566.912 314.997 566.912C314.528 566.912 314.176 567.072 313.941 567.392C313.717 567.701 313.605 568.192 313.605 568.864V569.424H315.765V570.512ZM324.769 573.696C324.769 575.115 324.406 576.213 323.681 576.992C322.966 577.771 321.996 578.16 320.769 578.16C320.012 578.16 319.334 577.989 318.737 577.648C318.15 577.296 317.686 576.789 317.345 576.128C317.004 575.456 316.833 574.645 316.833 573.696C316.833 572.277 317.19 571.184 317.905 570.416C318.62 569.648 319.59 569.264 320.817 569.264C321.596 569.264 322.278 569.44 322.865 569.792C323.462 570.133 323.926 570.635 324.257 571.296C324.598 571.947 324.769 572.747 324.769 573.696ZM318.289 573.696C318.289 574.709 318.486 575.515 318.881 576.112C319.286 576.699 319.926 576.992 320.801 576.992C321.665 576.992 322.3 576.699 322.705 576.112C323.11 575.515 323.313 574.709 323.313 573.696C323.313 572.683 323.11 571.888 322.705 571.312C322.3 570.736 321.66 570.448 320.785 570.448C319.91 570.448 319.276 570.736 318.881 571.312C318.486 571.888 318.289 572.683 318.289 573.696ZM331.001 569.264C331.161 569.264 331.331 569.275 331.513 569.296C331.705 569.307 331.87 569.328 332.009 569.36L331.833 570.656C331.694 570.624 331.539 570.597 331.369 570.576C331.209 570.555 331.054 570.544 330.905 570.544C330.467 570.544 330.057 570.667 329.673 570.912C329.289 571.147 328.979 571.483 328.745 571.92C328.521 572.347 328.409 572.848 328.409 573.424V578H327.001V569.424H328.153L328.313 570.992H328.377C328.654 570.523 329.011 570.117 329.449 569.776C329.886 569.435 330.403 569.264 331.001 569.264ZM340.806 578.16C339.74 578.16 338.886 577.792 338.246 577.056C337.606 576.309 337.286 575.2 337.286 573.728C337.286 572.256 337.606 571.147 338.246 570.4C338.897 569.643 339.756 569.264 340.822 569.264C341.484 569.264 342.022 569.387 342.438 569.632C342.865 569.877 343.212 570.176 343.478 570.528H343.574C343.564 570.389 343.542 570.187 343.51 569.92C343.489 569.643 343.478 569.424 343.478 569.264V565.84H344.886V578H343.75L343.542 576.848H343.478C343.222 577.211 342.881 577.52 342.454 577.776C342.028 578.032 341.478 578.16 340.806 578.16ZM341.03 576.992C341.937 576.992 342.572 576.747 342.934 576.256C343.308 575.755 343.494 575.003 343.494 574V573.744C343.494 572.677 343.318 571.861 342.966 571.296C342.614 570.72 341.964 570.432 341.014 570.432C340.257 570.432 339.686 570.736 339.302 571.344C338.929 571.941 338.742 572.747 338.742 573.76C338.742 574.784 338.929 575.579 339.302 576.144C339.686 576.709 340.262 576.992 341.03 576.992ZM350.922 569.264C351.658 569.264 352.287 569.424 352.81 569.744C353.343 570.064 353.749 570.517 354.026 571.104C354.314 571.68 354.458 572.357 354.458 573.136V573.984H348.586C348.607 574.955 348.853 575.696 349.322 576.208C349.802 576.709 350.469 576.96 351.322 576.96C351.866 576.96 352.346 576.912 352.762 576.816C353.189 576.709 353.626 576.56 354.074 576.368V577.6C353.637 577.792 353.205 577.931 352.778 578.016C352.351 578.112 351.845 578.16 351.258 578.16C350.447 578.16 349.727 577.995 349.098 577.664C348.479 577.333 347.994 576.843 347.642 576.192C347.301 575.531 347.13 574.725 347.13 573.776C347.13 572.837 347.285 572.032 347.594 571.36C347.914 570.688 348.357 570.171 348.922 569.808C349.498 569.445 350.165 569.264 350.922 569.264ZM350.906 570.416C350.234 570.416 349.701 570.635 349.306 571.072C348.922 571.499 348.693 572.096 348.618 572.864H352.986C352.975 572.139 352.805 571.552 352.474 571.104C352.143 570.645 351.621 570.416 350.906 570.416ZM362.225 575.632C362.225 576.464 361.916 577.093 361.297 577.52C360.679 577.947 359.847 578.16 358.801 578.16C358.204 578.16 357.687 578.112 357.249 578.016C356.823 577.92 356.444 577.787 356.113 577.616V576.336C356.455 576.507 356.865 576.667 357.345 576.816C357.836 576.955 358.332 577.024 358.833 577.024C359.548 577.024 360.065 576.912 360.385 576.688C360.705 576.453 360.865 576.144 360.865 575.76C360.865 575.547 360.807 575.355 360.689 575.184C360.572 575.013 360.359 574.843 360.049 574.672C359.751 574.501 359.319 574.309 358.753 574.096C358.199 573.883 357.724 573.669 357.329 573.456C356.935 573.243 356.631 572.987 356.417 572.688C356.204 572.389 356.097 572.005 356.097 571.536C356.097 570.811 356.391 570.251 356.977 569.856C357.575 569.461 358.353 569.264 359.313 569.264C359.836 569.264 360.321 569.317 360.769 569.424C361.228 569.52 361.655 569.659 362.049 569.84L361.569 570.96C361.207 570.811 360.828 570.683 360.433 570.576C360.039 570.469 359.633 570.416 359.217 570.416C358.641 570.416 358.199 570.512 357.889 570.704C357.591 570.885 357.441 571.136 357.441 571.456C357.441 571.691 357.511 571.893 357.649 572.064C357.788 572.224 358.017 572.384 358.337 572.544C358.668 572.693 359.105 572.875 359.649 573.088C360.193 573.291 360.657 573.499 361.041 573.712C361.425 573.925 361.719 574.187 361.921 574.496C362.124 574.795 362.225 575.173 362.225 575.632ZM365.69 572.192C365.69 572.363 365.679 572.587 365.658 572.864C365.647 573.141 365.636 573.381 365.626 573.584H365.69C365.754 573.499 365.85 573.376 365.978 573.216C366.106 573.056 366.234 572.896 366.362 572.736C366.5 572.565 366.618 572.427 366.714 572.32L369.45 569.424H371.098L367.626 573.088L371.338 578H369.642L366.666 574L365.69 574.848V578H364.298V565.84H365.69V572.192ZM375.708 577.008C375.922 577.008 376.14 576.992 376.364 576.96C376.588 576.917 376.77 576.875 376.908 576.832V577.904C376.759 577.979 376.546 578.037 376.268 578.08C375.991 578.133 375.724 578.16 375.468 578.16C375.02 578.16 374.604 578.085 374.22 577.936C373.847 577.776 373.543 577.504 373.308 577.12C373.074 576.736 372.956 576.197 372.956 575.504V570.512H371.74V569.84L372.972 569.28L373.532 567.456H374.364V569.424H376.844V570.512H374.364V575.472C374.364 575.995 374.487 576.384 374.732 576.64C374.988 576.885 375.314 577.008 375.708 577.008ZM386.082 573.696C386.082 575.115 385.719 576.213 384.994 576.992C384.279 577.771 383.308 578.16 382.082 578.16C381.324 578.16 380.647 577.989 380.05 577.648C379.463 577.296 378.999 576.789 378.658 576.128C378.316 575.456 378.146 574.645 378.146 573.696C378.146 572.277 378.503 571.184 379.218 570.416C379.932 569.648 380.903 569.264 382.13 569.264C382.908 569.264 383.591 569.44 384.178 569.792C384.775 570.133 385.239 570.635 385.57 571.296C385.911 571.947 386.082 572.747 386.082 573.696ZM379.602 573.696C379.602 574.709 379.799 575.515 380.194 576.112C380.599 576.699 381.239 576.992 382.114 576.992C382.978 576.992 383.612 576.699 384.018 576.112C384.423 575.515 384.626 574.709 384.626 573.696C384.626 572.683 384.423 571.888 384.018 571.312C383.612 570.736 382.972 570.448 382.098 570.448C381.223 570.448 380.588 570.736 380.194 571.312C379.799 571.888 379.602 572.683 379.602 573.696ZM392.393 569.264C393.449 569.264 394.297 569.632 394.937 570.368C395.588 571.104 395.913 572.213 395.913 573.696C395.913 575.157 395.588 576.267 394.937 577.024C394.297 577.781 393.444 578.16 392.377 578.16C391.716 578.16 391.166 578.037 390.729 577.792C390.302 577.536 389.966 577.243 389.721 576.912H389.625C389.646 577.093 389.668 577.323 389.689 577.6C389.71 577.877 389.721 578.117 389.721 578.32V581.84H388.313V569.424H389.465L389.657 570.592H389.721C389.977 570.219 390.313 569.904 390.729 569.648C391.145 569.392 391.7 569.264 392.393 569.264ZM392.137 570.448C391.262 570.448 390.644 570.693 390.281 571.184C389.929 571.675 389.742 572.421 389.721 573.424V573.696C389.721 574.752 389.892 575.568 390.233 576.144C390.585 576.709 391.23 576.992 392.169 576.992C392.692 576.992 393.118 576.848 393.449 576.56C393.79 576.272 394.041 575.883 394.201 575.392C394.372 574.891 394.457 574.32 394.457 573.68C394.457 572.699 394.265 571.915 393.881 571.328C393.508 570.741 392.926 570.448 392.137 570.448ZM405.561 569.28C406.606 569.28 407.38 569.509 407.881 569.968C408.382 570.427 408.633 571.157 408.633 572.16V578H407.609L407.337 576.784H407.273C406.9 577.253 406.505 577.6 406.089 577.824C405.684 578.048 405.118 578.16 404.393 578.16C403.614 578.16 402.969 577.957 402.457 577.552C401.945 577.136 401.689 576.491 401.689 575.616C401.689 574.763 402.025 574.107 402.697 573.648C403.369 573.179 404.404 572.923 405.801 572.88L407.257 572.832V572.32C407.257 571.605 407.102 571.109 406.793 570.832C406.484 570.555 406.046 570.416 405.481 570.416C405.033 570.416 404.606 570.485 404.201 570.624C403.796 570.752 403.417 570.901 403.065 571.072L402.633 570.016C403.006 569.813 403.449 569.643 403.961 569.504C404.473 569.355 405.006 569.28 405.561 569.28ZM405.977 573.856C404.91 573.899 404.169 574.069 403.753 574.368C403.348 574.667 403.145 575.088 403.145 575.632C403.145 576.112 403.289 576.464 403.577 576.688C403.876 576.912 404.254 577.024 404.713 577.024C405.438 577.024 406.041 576.827 406.521 576.432C407.001 576.027 407.241 575.408 407.241 574.576V573.808L405.977 573.856ZM415.362 569.264C416.418 569.264 417.266 569.632 417.906 570.368C418.557 571.104 418.882 572.213 418.882 573.696C418.882 575.157 418.557 576.267 417.906 577.024C417.266 577.781 416.413 578.16 415.346 578.16C414.685 578.16 414.135 578.037 413.698 577.792C413.271 577.536 412.935 577.243 412.69 576.912H412.594C412.615 577.093 412.637 577.323 412.658 577.6C412.679 577.877 412.69 578.117 412.69 578.32V581.84H411.282V569.424H412.434L412.626 570.592H412.69C412.946 570.219 413.282 569.904 413.698 569.648C414.114 569.392 414.669 569.264 415.362 569.264ZM415.106 570.448C414.231 570.448 413.613 570.693 413.25 571.184C412.898 571.675 412.711 572.421 412.69 573.424V573.696C412.69 574.752 412.861 575.568 413.202 576.144C413.554 576.709 414.199 576.992 415.138 576.992C415.661 576.992 416.087 576.848 416.418 576.56C416.759 576.272 417.01 575.883 417.17 575.392C417.341 574.891 417.426 574.32 417.426 573.68C417.426 572.699 417.234 571.915 416.85 571.328C416.477 570.741 415.895 570.448 415.106 570.448ZM425.206 569.264C426.262 569.264 427.11 569.632 427.75 570.368C428.4 571.104 428.726 572.213 428.726 573.696C428.726 575.157 428.4 576.267 427.75 577.024C427.11 577.781 426.256 578.16 425.19 578.16C424.528 578.16 423.979 578.037 423.542 577.792C423.115 577.536 422.779 577.243 422.534 576.912H422.438C422.459 577.093 422.48 577.323 422.502 577.6C422.523 577.877 422.534 578.117 422.534 578.32V581.84H421.126V569.424H422.278L422.47 570.592H422.534C422.79 570.219 423.126 569.904 423.542 569.648C423.958 569.392 424.512 569.264 425.206 569.264ZM424.95 570.448C424.075 570.448 423.456 570.693 423.094 571.184C422.742 571.675 422.555 572.421 422.534 573.424V573.696C422.534 574.752 422.704 575.568 423.046 576.144C423.398 576.709 424.043 576.992 424.982 576.992C425.504 576.992 425.931 576.848 426.262 576.56C426.603 576.272 426.854 575.883 427.014 575.392C427.184 574.891 427.27 574.32 427.27 573.68C427.27 572.699 427.078 571.915 426.694 571.328C426.32 570.741 425.739 570.448 424.95 570.448Z" fill="white" fill-opacity="0.6"/>
<g filter="url(#filter1_d_38_554)">
<path d="M300.422 646.904C300.422 648.593 299.955 649.867 299.022 650.726C298.098 651.575 296.801 652 295.13 652H292.33V642.004H295.424C296.441 642.004 297.323 642.191 298.07 642.564C298.817 642.937 299.395 643.488 299.806 644.216C300.217 644.935 300.422 645.831 300.422 646.904ZM298.84 646.946C298.84 645.686 298.532 644.762 297.916 644.174C297.309 643.577 296.446 643.278 295.326 643.278H293.842V650.726H295.06C297.58 650.726 298.84 649.466 298.84 646.946ZM305.398 644.314C306.387 644.314 307.166 644.622 307.736 645.238C308.305 645.845 308.59 646.675 308.59 647.73V648.542H303.522C303.54 649.317 303.741 649.909 304.124 650.32C304.516 650.731 305.062 650.936 305.762 650.936C306.247 650.936 306.676 650.894 307.05 650.81C307.432 650.717 307.824 650.581 308.226 650.404V651.636C307.843 651.804 307.46 651.93 307.078 652.014C306.695 652.098 306.238 652.14 305.706 652.14C304.968 652.14 304.32 651.995 303.76 651.706C303.209 651.417 302.775 650.987 302.458 650.418C302.15 649.839 301.996 649.13 301.996 648.29C301.996 647.441 302.136 646.722 302.416 646.134C302.705 645.546 303.102 645.098 303.606 644.79C304.119 644.473 304.716 644.314 305.398 644.314ZM305.398 645.462C304.866 645.462 304.436 645.635 304.11 645.98C303.792 646.325 303.606 646.815 303.55 647.45H307.106C307.096 646.862 306.952 646.386 306.672 646.022C306.401 645.649 305.976 645.462 305.398 645.462ZM313.157 650.936C313.353 650.936 313.554 650.922 313.759 650.894C313.965 650.857 314.142 650.81 314.291 650.754V651.874C314.123 651.949 313.904 652.009 313.633 652.056C313.372 652.112 313.106 652.14 312.835 652.14C312.425 652.14 312.047 652.07 311.701 651.93C311.356 651.79 311.081 651.547 310.875 651.202C310.679 650.857 310.581 650.376 310.581 649.76V645.588H309.531V644.916L310.637 644.356L311.155 642.76H312.065V644.454H314.221V645.588H312.065V649.732C312.065 650.143 312.163 650.446 312.359 650.642C312.565 650.838 312.831 650.936 313.157 650.936ZM318.727 644.314C319.669 644.314 320.374 644.524 320.841 644.944C321.317 645.355 321.555 646.003 321.555 646.89V652H320.505L320.211 650.95H320.155C319.828 651.361 319.483 651.664 319.119 651.86C318.764 652.047 318.269 652.14 317.635 652.14C316.953 652.14 316.389 651.958 315.941 651.594C315.493 651.221 315.269 650.642 315.269 649.858C315.269 649.093 315.558 648.509 316.137 648.108C316.715 647.707 317.607 647.487 318.811 647.45L320.099 647.408V646.988C320.099 646.437 319.973 646.05 319.721 645.826C319.469 645.593 319.114 645.476 318.657 645.476C318.274 645.476 317.905 645.532 317.551 645.644C317.196 645.756 316.855 645.891 316.529 646.05L316.053 644.972C316.407 644.785 316.813 644.631 317.271 644.51C317.737 644.379 318.223 644.314 318.727 644.314ZM319.077 648.402C318.218 648.439 317.621 648.584 317.285 648.836C316.958 649.079 316.795 649.424 316.795 649.872C316.795 650.264 316.911 650.549 317.145 650.726C317.378 650.903 317.681 650.992 318.055 650.992C318.633 650.992 319.114 650.829 319.497 650.502C319.889 650.175 320.085 649.685 320.085 649.032V648.374L319.077 648.402ZM324.596 641.584C324.82 641.584 325.016 641.649 325.184 641.78C325.352 641.911 325.436 642.13 325.436 642.438C325.436 642.737 325.352 642.956 325.184 643.096C325.016 643.227 324.82 643.292 324.596 643.292C324.353 643.292 324.148 643.227 323.98 643.096C323.821 642.956 323.742 642.737 323.742 642.438C323.742 642.13 323.821 641.911 323.98 641.78C324.148 641.649 324.353 641.584 324.596 641.584ZM325.324 644.454V652H323.84V644.454H325.324ZM329.138 652H327.654V641.36H329.138V652Z" fill="white"/>
<path d="M280.5 628H341.5V626H280.5V628ZM341.5 665H280.5V667H341.5V665ZM280.5 665C270.283 665 262 656.717 262 646.5H260C260 657.822 269.178 667 280.5 667V665ZM360 646.5C360 656.717 351.717 665 341.5 665V667C352.822 667 362 657.822 362 646.5H360ZM341.5 628C351.717 628 360 636.283 360 646.5H362C362 635.178 352.822 626 341.5 626V628ZM280.5 626C269.178 626 260 635.178 260 646.5H262C262 636.283 270.283 628 280.5 628V626Z" fill="white"/>
</g>
<path d="M127 235C127 223.954 135.954 215 147 215H475C486.046 215 495 223.954 495 235V471H127V235Z" fill="#2C2C46" fill-opacity="0.5"/>
<rect x="234" y="83" width="154" height="26" rx="13" fill="#212136"/>
<rect x="264" y="123" width="94" height="26" rx="13" fill="#212136"/>
<defs>
<filter id="filter0_d_38_554" x="0" y="0" width="622" height="561" filterUnits="userSpaceOnUse" color-interpolation-filters="sRGB">
<feFlood flood-opacity="0" result="BackgroundImageFix"/>
<feColorMatrix in="SourceAlpha" type="matrix" values="0 0 0 0 0 0 0 0 0 0 0 0 0 0 0 0 0 0 127 0" result="hardAlpha"/>
<feOffset dy="30"/>
<feGaussianBlur stdDeviation="30"/>
<feColorMatrix type="matrix" values="0 0 0 0 0.374756 0 0 0 0 0.0864062 0 0 0 0 0.9875 0 0 0 0.03 0"/>
<feBlend mode="normal" in2="BackgroundImageFix" result="effect1_dropShadow_38_554"/>
<feBlend mode="normal" in="SourceGraphic" in2="effect1_dropShadow_38_554" result="shape"/>
</filter>
<filter id="filter1_d_38_554" x="231" y="612" width="160" height="99" filterUnits="userSpaceOnUse" color-interpolation-filters="sRGB">
<feFlood flood-opacity="0" result="BackgroundImageFix"/>
<feColorMatrix in="SourceAlpha" type="matrix" values="0 0 0 0 0 0 0 0 0 0 0 0 0 0 0 0 0 0 127 0" result="hardAlpha"/>
<feOffset dy="15"/>
<feGaussianBlur stdDeviation="15"/>
<feColorMatrix type="matrix" values="0 0 0 0 0 0 0 0 0 0 0 0 0 0 0 0 0 0 0.1 0"/>
<feBlend mode="normal" in2="BackgroundImageFix" result="effect1_dropShadow_38_554"/>
<feBlend mode="normal" in="SourceGraphic" in2="effect1_dropShadow_38_554" result="shape"/>
</filter>
</defs>
</svg>
