<svg width="505" height="324" viewBox="0 0 505 324" fill="none" xmlns="http://www.w3.org/2000/svg">
<g filter="url(#filter0_b_9_99)">
<rect width="505" height="324" rx="10" fill="white" fill-opacity="0.05"/>
</g>
<path d="M91 66H39C36.2386 66 34 68.2386 34 71V74C34 76.7614 36.2386 79 39 79H91C93.7614 79 96 76.7614 96 74V71C96 68.2386 93.7614 66 91 66Z" fill="white" fill-opacity="0.05"/>
<path d="M131 66H109C106.239 66 104 68.2386 104 71V74C104 76.7614 106.239 79 109 79H131C133.761 79 136 76.7614 136 74V71C136 68.2386 133.761 66 131 66Z" fill="white" fill-opacity="0.05"/>
<path d="M157 66H149C146.239 66 144 68.2386 144 71V74C144 76.7614 146.239 79 149 79H157C159.761 79 162 76.7614 162 74V71C162 68.2386 159.761 66 157 66Z" fill="white" fill-opacity="0.05"/>
<path d="M42 89H39C36.2386 89 34 91.2386 34 94V97C34 99.7614 36.2386 102 39 102H42C44.7614 102 47 99.7614 47 97V94C47 91.2386 44.7614 89 42 89Z" fill="white" fill-opacity="0.05"/>
<path d="M111 89H60C57.2386 89 55 91.2386 55 94V97C55 99.7614 57.2386 102 60 102H111C113.761 102 116 99.7614 116 97V94C116 91.2386 113.761 89 111 89Z" fill="white" fill-opacity="0.05"/>
<path d="M168 89H129C126.239 89 124 91.2386 124 94V97C124 99.7614 126.239 102 129 102H168C170.761 102 173 99.7614 173 97V94C173 91.2386 170.761 89 168 89Z" fill="white" fill-opacity="0.05"/>
<path d="M97 112H39C36.2386 112 34 114.239 34 117V120C34 122.761 36.2386 125 39 125H97C99.7614 125 102 122.761 102 120V117C102 114.239 99.7614 112 97 112Z" fill="white" fill-opacity="0.05"/>
<path d="M161 112H115C112.239 112 110 114.239 110 117V120C110 122.761 112.239 125 115 125H161C163.761 125 166 122.761 166 120V117C166 114.239 163.761 112 161 112Z" fill="white" fill-opacity="0.05"/>
<path d="M245 112H179C176.239 112 174 114.239 174 117V120C174 122.761 176.239 125 179 125H245C247.761 125 250 122.761 250 120V117C250 114.239 247.761 112 245 112Z" fill="white" fill-opacity="0.05"/>
<path d="M293 112H263C260.239 112 258 114.239 258 117V120C258 122.761 260.239 125 263 125H293C295.761 125 298 122.761 298 120V117C298 114.239 295.761 112 293 112Z" fill="white" fill-opacity="0.05"/>
<path d="M351 112H311C308.239 112 306 114.239 306 117V120C306 122.761 308.239 125 311 125H351C353.761 125 356 122.761 356 120V117C356 114.239 353.761 112 351 112Z" fill="white" fill-opacity="0.05"/>
<path d="M406 112H369C366.239 112 364 114.239 364 117V120C364 122.761 366.239 125 369 125H406C408.761 125 411 122.761 411 120V117C411 114.239 408.761 112 406 112Z" fill="white" fill-opacity="0.05"/>
<path d="M97 273H39C36.2386 273 34 275.239 34 278V281C34 283.761 36.2386 286 39 286H97C99.7614 286 102 283.761 102 281V278C102 275.239 99.7614 273 97 273Z" fill="white" fill-opacity="0.05"/>
<path d="M161 273H115C112.239 273 110 275.239 110 278V281C110 283.761 112.239 286 115 286H161C163.761 286 166 283.761 166 281V278C166 275.239 163.761 273 161 273Z" fill="white" fill-opacity="0.05"/>
<path d="M245 273H179C176.239 273 174 275.239 174 278V281C174 283.761 176.239 286 179 286H245C247.761 286 250 283.761 250 281V278C250 275.239 247.761 273 245 273Z" fill="white" fill-opacity="0.05"/>
<path d="M293 273H263C260.239 273 258 275.239 258 278V281C258 283.761 260.239 286 263 286H293C295.761 286 298 283.761 298 281V278C298 275.239 295.761 273 293 273Z" fill="white" fill-opacity="0.05"/>
<path d="M351 273H311C308.239 273 306 275.239 306 278V281C306 283.761 308.239 286 311 286H351C353.761 286 356 283.761 356 281V278C356 275.239 353.761 273 351 273Z" fill="white" fill-opacity="0.05"/>
<path d="M406 273H369C366.239 273 364 275.239 364 278V281C364 283.761 366.239 286 369 286H406C408.761 286 411 283.761 411 281V278C411 275.239 408.761 273 406 273Z" fill="white" fill-opacity="0.05"/>
<path d="M77 135H39C36.2386 135 34 137.239 34 140V143C34 145.761 36.2386 148 39 148H77C79.7614 148 82 145.761 82 143V140C82 137.239 79.7614 135 77 135Z" fill="white" fill-opacity="0.05"/>
<path d="M157 135H95C92.2386 135 90 137.239 90 140V143C90 145.761 92.2386 148 95 148H157C159.761 148 162 145.761 162 143V140C162 137.239 159.761 135 157 135Z" fill="white" fill-opacity="0.05"/>
<path d="M236 135H175C172.239 135 170 137.239 170 140V143C170 145.761 172.239 148 175 148H236C238.761 148 241 145.761 241 143V140C241 137.239 238.761 135 236 135Z" fill="white" fill-opacity="0.05"/>
<path d="M77 250H39C36.2386 250 34 252.239 34 255V258C34 260.761 36.2386 263 39 263H77C79.7614 263 82 260.761 82 258V255C82 252.239 79.7614 250 77 250Z" fill="white" fill-opacity="0.05"/>
<path d="M157 250H95C92.2386 250 90 252.239 90 255V258C90 260.761 92.2386 263 95 263H157C159.761 263 162 260.761 162 258V255C162 252.239 159.761 250 157 250Z" fill="white" fill-opacity="0.05"/>
<path d="M236 250H175C172.239 250 170 252.239 170 255V258C170 260.761 172.239 263 175 263H236C238.761 263 241 260.761 241 258V255C241 252.239 238.761 250 236 250Z" fill="white" fill-opacity="0.05"/>
<path d="M44 158H39C36.2386 158 34 160.239 34 163V166C34 168.761 36.2386 171 39 171H44C46.7614 171 49 168.761 49 166V163C49 160.239 46.7614 158 44 158Z" fill="white" fill-opacity="0.05"/>
<path d="M131 158H62C59.2386 158 57 160.239 57 163V166C57 168.761 59.2386 171 62 171H131C133.761 171 136 168.761 136 166V163C136 160.239 133.761 158 131 158Z" fill="white" fill-opacity="0.05"/>
<path d="M163 158H149C146.239 158 144 160.239 144 163V166C144 168.761 146.239 171 149 171H163C165.761 171 168 168.761 168 166V163C168 160.239 165.761 158 163 158Z" fill="white" fill-opacity="0.05"/>
<path d="M235 158H181C178.239 158 176 160.239 176 163V166C176 168.761 178.239 171 181 171H235C237.761 171 240 168.761 240 166V163C240 160.239 237.761 158 235 158Z" fill="white" fill-opacity="0.05"/>
<path d="M286 158H253C250.239 158 248 160.239 248 163V166C248 168.761 250.239 171 253 171H286C288.761 171 291 168.761 291 166V163C291 160.239 288.761 158 286 158Z" fill="white" fill-opacity="0.05"/>
<path d="M374 158H304C301.239 158 299 160.239 299 163V166C299 168.761 301.239 171 304 171H374C376.761 171 379 168.761 379 166V163C379 160.239 376.761 158 374 158Z" fill="white" fill-opacity="0.05"/>
<path d="M71 181H39C36.2386 181 34 183.239 34 186V189C34 191.761 36.2386 194 39 194H71C73.7614 194 76 191.761 76 189V186C76 183.239 73.7614 181 71 181Z" fill="white" fill-opacity="0.05"/>
<path d="M85 204H39C36.2386 204 34 206.239 34 209V212C34 214.761 36.2386 217 39 217H85C87.7614 217 90 214.761 90 212V209C90 206.239 87.7614 204 85 204Z" fill="white" fill-opacity="0.05"/>
<path d="M169 204H103C100.239 204 98 206.239 98 209V212C98 214.761 100.239 217 103 217H169C171.761 217 174 214.761 174 212V209C174 206.239 171.761 204 169 204Z" fill="white" fill-opacity="0.05"/>
<path d="M200 204H187C184.239 204 182 206.239 182 209V212C182 214.761 184.239 217 187 217H200C202.761 217 205 214.761 205 212V209C205 206.239 202.761 204 200 204Z" fill="white" fill-opacity="0.05"/>
<path d="M99 227H39C36.2386 227 34 229.239 34 232V235C34 237.761 36.2386 240 39 240H99C101.761 240 104 237.761 104 235V232C104 229.239 101.761 227 99 227Z" fill="white" fill-opacity="0.05"/>
<path d="M145 227H117C114.239 227 112 229.239 112 232V235C112 237.761 114.239 240 117 240H145C147.761 240 150 237.761 150 235V232C150 229.239 147.761 227 145 227Z" fill="white" fill-opacity="0.05"/>
<path d="M217 227H163C160.239 227 158 229.239 158 232V235C158 237.761 160.239 240 163 240H217C219.761 240 222 237.761 222 235V232C222 229.239 219.761 227 217 227Z" fill="white" fill-opacity="0.05"/>
<path d="M257 227H235C232.239 227 230 229.239 230 232V235C230 237.761 232.239 240 235 240H257C259.761 240 262 237.761 262 235V232C262 229.239 259.761 227 257 227Z" fill="white" fill-opacity="0.05"/>
<path d="M301 227H275C272.239 227 270 229.239 270 232V235C270 237.761 272.239 240 275 240H301C303.761 240 306 237.761 306 235V232C306 229.239 303.761 227 301 227Z" fill="white" fill-opacity="0.05"/>
<path d="M376 227H319C316.239 227 314 229.239 314 232V235C314 237.761 316.239 240 319 240H376C378.761 240 381 237.761 381 235V232C381 229.239 378.761 227 376 227Z" fill="white" fill-opacity="0.05"/>
<circle cx="34" cy="35" r="5" fill="#FC165B"/>
<circle cx="50" cy="35" r="5" fill="#FCA016"/>
<circle cx="66" cy="35" r="5" fill="#16FCA9"/>
<defs>
<filter id="filter0_b_9_99" x="-74" y="-74" width="653" height="472" filterUnits="userSpaceOnUse" color-interpolation-filters="sRGB">
<feFlood flood-opacity="0" result="BackgroundImageFix"/>
<feGaussianBlur in="BackgroundImage" stdDeviation="37"/>
<feComposite in2="SourceAlpha" operator="in" result="effect1_backgroundBlur_9_99"/>
<feBlend mode="normal" in="SourceGraphic" in2="effect1_backgroundBlur_9_99" result="shape"/>
</filter>
</defs>
</svg>
