<svg width="119" height="30" viewBox="0 0 119 30" fill="none" xmlns="http://www.w3.org/2000/svg">
<path d="M67.4135 9.78518C67.4135 6.34814 67.473 3.14814 67.6515 0.185181L58.548 1.9037V2.73333L59.4405 2.85185C60.095 2.91111 60.5115 3.14814 60.7495 3.5037C60.9875 3.91851 61.166 4.51111 61.285 5.4C61.404 7.11851 61.523 11.0296 61.4635 17.1926C61.4635 23.2963 61.404 27.1481 61.285 28.6296C64.5575 29.3407 67.116 29.637 69.02 29.637C72.59 29.637 75.3865 28.6296 77.4095 26.5556C79.4325 24.5407 80.5035 21.6963 80.5035 18.2C80.5035 15.4148 79.73 13.1037 78.183 11.2667C76.636 9.42963 74.6725 8.54074 72.352 8.54074C70.805 8.54074 69.1985 8.95555 67.4135 9.78518ZM67.592 28.037C67.473 26.1407 67.354 20.4518 67.354 11.1481C67.8895 10.9704 68.6035 10.8518 69.496 10.8518C70.924 10.8518 72.0545 11.563 72.8875 13.0444C73.7205 14.5259 74.137 16.3037 74.137 18.5556C74.137 21.3407 73.661 23.5926 72.709 25.4889C71.757 27.3259 70.567 28.2741 69.0795 28.2741C68.6035 28.1556 68.1275 28.0963 67.592 28.037ZM24.395 0.777773H0.595001V1.96296L1.8445 2.08148C2.7965 2.25925 3.451 2.61481 3.8675 3.14814C4.284 3.74074 4.522 4.68888 4.5815 5.99259C5.0575 12.3926 5.0575 18.3778 4.5815 23.8889C4.4625 25.1926 4.2245 26.1407 3.8675 26.7333C3.451 27.3259 2.7965 27.6815 1.8445 27.8L0.595001 27.9778V29.163H15.946V27.9778L14.3395 27.8593C13.3875 27.7407 12.733 27.3259 12.3165 26.7926C11.9 26.2 11.662 25.2518 11.6025 23.9481C11.424 21.5778 11.305 18.8518 11.305 15.8296L14.518 15.8889C16.2435 15.9481 17.4335 17.2518 18.0285 19.8593H19.2185V10.2H18.0285C17.4335 12.7481 16.303 14.0518 14.518 14.1111L11.305 14.1704C11.305 8.83703 11.424 5.04444 11.6025 2.73333H16.303C19.635 2.73333 21.896 4.86666 23.205 9.13333L24.633 8.71851L24.395 0.777773ZM21.5985 19.0296C21.5985 22.1111 22.491 24.6593 24.2165 26.6741C25.942 28.6889 28.5005 29.637 31.7135 29.637C34.9265 29.637 37.5445 28.6296 39.4485 26.5556C41.3525 24.5407 42.245 21.9926 42.245 18.9111C42.245 15.8296 41.3525 13.2815 39.627 11.2667C37.9015 9.25185 35.343 8.3037 32.13 8.3037C28.917 8.3037 26.299 9.31111 24.395 11.3852C22.491 13.4 21.5985 15.9481 21.5985 19.0296ZM34.867 12.2741C35.581 13.9926 35.8785 16.2444 35.8785 18.9704C35.8785 25.2518 34.5695 28.3333 32.011 28.3333C30.702 28.3333 29.6905 27.4444 28.9765 25.6667C28.2625 23.8889 27.965 21.637 27.965 18.9704C27.965 12.7481 29.274 9.66666 31.8325 9.66666C33.1415 9.6074 34.153 10.4963 34.867 12.2741ZM85.1445 26.6741C87.108 28.6296 89.607 29.637 92.582 29.637C94.4265 29.637 96.033 29.2815 97.461 28.5111C98.889 27.8 100.019 26.9111 100.793 25.8444L100.198 25.1333C98.889 26.1407 97.4015 26.6148 95.676 26.6148C93.296 26.6148 91.4515 25.8444 90.202 24.2444C88.893 22.6444 88.298 20.6296 88.417 18.0222H101.15C101.15 15.1778 100.436 12.8667 98.9485 11.0296C97.461 9.25185 95.3785 8.36296 92.701 8.36296C89.369 8.36296 86.8105 9.42963 84.966 11.5037C83.1215 13.5778 82.229 16.1259 82.229 19.1481C82.229 22.2296 83.181 24.7185 85.1445 26.6741ZM89.5475 11.8C90.202 10.3778 91.035 9.66666 92.1655 9.66666C93.9505 9.66666 94.843 11.9185 94.843 16.4815L88.536 16.6C88.5955 14.8222 88.893 13.2222 89.5475 11.8ZM117.155 9.42963C115.549 8.71851 113.526 8.3037 111.086 8.3037C108.587 8.3037 106.624 8.95555 105.136 10.2C103.649 11.4444 102.875 12.9852 102.875 14.8222C102.875 16.4222 103.351 17.6667 104.244 18.5556C105.136 19.4444 106.564 20.2148 108.409 20.8667C110.075 21.4593 111.265 22.0518 111.86 22.5852C112.455 23.1778 112.812 23.8296 112.812 24.7185C112.812 25.5481 112.514 26.3185 111.86 26.9111C111.265 27.563 110.432 27.8593 109.361 27.8593C106.743 27.8593 104.779 25.963 103.411 22.1704L102.399 22.4667L102.637 28.3926C104.779 29.2222 107.159 29.637 109.777 29.637C112.514 29.637 114.597 29.0444 116.144 27.8C117.691 26.6148 118.465 24.8963 118.465 22.763C118.465 21.3407 118.107 20.1556 117.334 19.2667C116.56 18.3778 115.311 17.6074 113.526 16.8963C111.562 16.1852 110.194 15.5333 109.48 14.9407C108.766 14.3481 108.409 13.637 108.409 12.7481C108.409 11.8593 108.647 11.1481 109.182 10.5556C109.718 9.96296 110.372 9.72592 111.205 9.72592C113.585 9.72592 115.311 11.4444 116.382 14.8222L117.393 14.5259L117.155 9.42963ZM59.9165 8.89629C59.0835 8.48148 58.191 8.3037 57.1795 8.3037C56.168 8.3037 55.1565 8.71851 54.026 9.54814C52.8955 10.3778 52.0625 11.5037 51.408 13.0444L51.4675 8.3037L42.4235 10.0815V10.9111L43.316 10.9704C44.4465 11.0889 45.101 11.9778 45.22 13.5778C45.577 17.2518 45.577 21.163 45.22 25.3111C45.101 26.9111 44.4465 27.7407 43.316 27.9185L42.4235 28.037V29.163H55.0375V28.037L53.431 27.9185C52.3005 27.8 51.646 26.9111 51.527 25.3111C51.17 21.8741 51.1105 18.2 51.408 14.4074C51.765 13.8148 52.5385 13.4593 53.7285 13.3407C54.9185 13.2222 56.287 13.5778 57.715 14.4074L59.9165 8.89629Z" fill="white" fill-opacity="0.6"/>
</svg>
