<svg width="388" height="345" viewBox="0 0 388 345" fill="none" xmlns="http://www.w3.org/2000/svg">
<g filter="url(#filter0_d_8_80)">
<rect x="30" y="15" width="328" height="285" rx="5" fill="#161629"/>
<rect x="30.5" y="15.5" width="327" height="284" rx="4.5" stroke="white" stroke-opacity="0.1"/>
</g>
<rect x="199.5" y="232.5" width="48" height="29" rx="0.5" stroke="white" stroke-opacity="0.1"/>
<rect x="299" y="232" width="30" height="30" rx="1" fill="white" fill-opacity="0.05"/>
<path d="M309.333 247H318.667" stroke="white" stroke-width="2" stroke-linecap="round" stroke-linejoin="round"/>
<rect x="258" y="232" width="30" height="30" rx="1" fill="white" fill-opacity="0.05"/>
<g clip-path="url(#clip0_8_80)">
<path d="M265.667 247C265.667 247 268.333 241.667 273 241.667C277.667 241.667 280.333 247 280.333 247C280.333 247 277.667 252.333 273 252.333C268.333 252.333 265.667 247 265.667 247Z" stroke="white" stroke-width="2" stroke-linecap="round" stroke-linejoin="round"/>
<path d="M273 249C274.105 249 275 248.105 275 247C275 245.895 274.105 245 273 245C271.895 245 271 245.895 271 247C271 248.105 271.895 249 273 249Z" stroke="white" stroke-width="2" stroke-linecap="round" stroke-linejoin="round"/>
</g>
<path d="M211.692 252H210.18V246.66C210.18 246.404 210.184 246.132 210.192 245.844C210.2 245.556 210.212 245.288 210.228 245.04C210.148 245.12 210.048 245.216 209.928 245.328C209.808 245.432 209.684 245.54 209.556 245.652L208.596 246.42L207.84 245.484L210.432 243.432H211.692V252ZM220.227 247.716C220.227 248.636 220.131 249.424 219.939 250.08C219.747 250.736 219.435 251.24 219.003 251.592C218.571 251.944 217.999 252.12 217.287 252.12C216.279 252.12 215.539 251.732 215.067 250.956C214.595 250.172 214.359 249.092 214.359 247.716C214.359 246.788 214.455 245.996 214.647 245.34C214.839 244.684 215.147 244.18 215.571 243.828C216.003 243.476 216.575 243.3 217.287 243.3C218.287 243.3 219.027 243.688 219.507 244.464C219.987 245.24 220.227 246.324 220.227 247.716ZM215.883 247.716C215.883 248.764 215.983 249.552 216.183 250.08C216.391 250.608 216.759 250.872 217.287 250.872C217.807 250.872 218.171 250.612 218.379 250.092C218.595 249.564 218.703 248.772 218.703 247.716C218.703 246.66 218.595 245.868 218.379 245.34C218.171 244.812 217.807 244.548 217.287 244.548C216.759 244.548 216.391 244.812 216.183 245.34C215.983 245.868 215.883 246.66 215.883 247.716ZM227.094 247.716C227.094 248.636 226.998 249.424 226.806 250.08C226.614 250.736 226.302 251.24 225.87 251.592C225.438 251.944 224.866 252.12 224.154 252.12C223.146 252.12 222.406 251.732 221.934 250.956C221.462 250.172 221.226 249.092 221.226 247.716C221.226 246.788 221.322 245.996 221.514 245.34C221.706 244.684 222.014 244.18 222.438 243.828C222.87 243.476 223.442 243.3 224.154 243.3C225.154 243.3 225.894 243.688 226.374 244.464C226.854 245.24 227.094 246.324 227.094 247.716ZM222.75 247.716C222.75 248.764 222.85 249.552 223.05 250.08C223.258 250.608 223.626 250.872 224.154 250.872C224.674 250.872 225.038 250.612 225.246 250.092C225.462 249.564 225.57 248.772 225.57 247.716C225.57 246.66 225.462 245.868 225.246 245.34C225.038 244.812 224.674 244.548 224.154 244.548C223.626 244.548 223.258 244.812 223.05 245.34C222.85 245.868 222.75 246.66 222.75 247.716ZM229.966 243.312C230.614 243.312 231.102 243.548 231.43 244.02C231.766 244.484 231.934 245.14 231.934 245.988C231.934 246.836 231.774 247.5 231.454 247.98C231.142 248.452 230.646 248.688 229.966 248.688C229.342 248.688 228.866 248.452 228.538 247.98C228.218 247.5 228.058 246.836 228.058 245.988C228.058 245.14 228.21 244.484 228.514 244.02C228.818 243.548 229.302 243.312 229.966 243.312ZM235.834 243.432L231.082 252H229.858L234.61 243.432H235.834ZM229.978 244.356C229.53 244.356 229.306 244.904 229.306 246C229.306 247.096 229.53 247.644 229.978 247.644C230.442 247.644 230.674 247.096 230.674 246C230.674 244.904 230.442 244.356 229.978 244.356ZM235.69 246.732C236.322 246.732 236.806 246.968 237.142 247.44C237.478 247.912 237.646 248.568 237.646 249.408C237.646 250.256 237.486 250.92 237.166 251.4C236.854 251.872 236.362 252.108 235.69 252.108C235.058 252.108 234.578 251.872 234.25 251.4C233.93 250.92 233.77 250.256 233.77 249.408C233.77 248.568 233.922 247.912 234.226 247.44C234.538 246.968 235.026 246.732 235.69 246.732ZM235.69 247.788C235.242 247.788 235.018 248.332 235.018 249.42C235.018 250.524 235.242 251.076 235.69 251.076C236.162 251.076 236.398 250.524 236.398 249.42C236.398 248.332 236.162 247.788 235.69 247.788Z" fill="white"/>
<path d="M77.62 76H75.868L73.768 72.58L71.656 76H70.024L72.868 71.56L70.204 67.432H71.896L73.84 70.624L75.772 67.432H77.416L74.74 71.62L77.62 76Z" fill="white"/>
<path d="M96.384 76H90.516V74.884L92.7 72.676C93.132 72.236 93.484 71.86 93.756 71.548C94.036 71.236 94.24 70.944 94.368 70.672C94.504 70.392 94.572 70.092 94.572 69.772C94.572 69.38 94.46 69.088 94.236 68.896C94.012 68.696 93.716 68.596 93.348 68.596C92.988 68.596 92.652 68.672 92.34 68.824C92.028 68.968 91.704 69.176 91.368 69.448L90.54 68.452C90.892 68.148 91.292 67.884 91.74 67.66C92.188 67.428 92.752 67.312 93.432 67.312C93.984 67.312 94.46 67.412 94.86 67.612C95.26 67.804 95.564 68.072 95.772 68.416C95.988 68.76 96.096 69.16 96.096 69.616C96.096 70.08 96.004 70.508 95.82 70.9C95.636 71.284 95.368 71.672 95.016 72.064C94.672 72.448 94.26 72.864 93.78 73.312L92.424 74.62V74.692H96.384V76ZM102.915 69.388C102.915 69.972 102.743 70.44 102.399 70.792C102.063 71.136 101.627 71.368 101.091 71.488V71.524C101.779 71.612 102.299 71.828 102.651 72.172C103.003 72.508 103.179 72.96 103.179 73.528C103.179 74.024 103.059 74.468 102.819 74.86C102.579 75.252 102.207 75.56 101.703 75.784C101.207 76.008 100.567 76.12 99.7832 76.12C99.3192 76.12 98.8872 76.08 98.4872 76C98.0872 75.928 97.7112 75.812 97.3592 75.652V74.32C97.7192 74.504 98.1032 74.644 98.5112 74.74C98.9192 74.836 99.3032 74.884 99.6632 74.884C100.359 74.884 100.851 74.76 101.139 74.512C101.427 74.256 101.571 73.904 101.571 73.456C101.571 73.032 101.403 72.716 101.067 72.508C100.731 72.3 100.171 72.196 99.3872 72.196H98.6672V70.984H99.3992C100.159 70.984 100.683 70.864 100.971 70.624C101.259 70.376 101.403 70.052 101.403 69.652C101.403 69.308 101.291 69.04 101.067 68.848C100.843 68.656 100.507 68.56 100.059 68.56C99.6272 68.56 99.2552 68.632 98.9432 68.776C98.6312 68.912 98.3512 69.06 98.1032 69.22L97.3832 68.176C97.7032 67.936 98.0872 67.732 98.5352 67.564C98.9912 67.396 99.5232 67.312 100.131 67.312C101.019 67.312 101.703 67.5 102.183 67.876C102.671 68.244 102.915 68.748 102.915 69.388ZM110.094 71.716C110.094 72.636 109.998 73.424 109.806 74.08C109.614 74.736 109.302 75.24 108.87 75.592C108.438 75.944 107.866 76.12 107.154 76.12C106.146 76.12 105.406 75.732 104.934 74.956C104.462 74.172 104.226 73.092 104.226 71.716C104.226 70.788 104.322 69.996 104.514 69.34C104.706 68.684 105.014 68.18 105.438 67.828C105.87 67.476 106.442 67.3 107.154 67.3C108.154 67.3 108.894 67.688 109.374 68.464C109.854 69.24 110.094 70.324 110.094 71.716ZM105.75 71.716C105.75 72.764 105.85 73.552 106.05 74.08C106.258 74.608 106.626 74.872 107.154 74.872C107.674 74.872 108.038 74.612 108.246 74.092C108.462 73.564 108.57 72.772 108.57 71.716C108.57 70.66 108.462 69.868 108.246 69.34C108.038 68.812 107.674 68.548 107.154 68.548C106.626 68.548 106.258 68.812 106.05 69.34C105.85 69.868 105.75 70.66 105.75 71.716Z" fill="white"/>
<rect x="59.5" y="56.5" width="129" height="29" rx="0.5" stroke="white" stroke-opacity="0.1"/>
<path d="M81.376 112.432L79.156 121H77.464L76.108 116.08C76.06 115.92 76.008 115.716 75.952 115.468C75.896 115.212 75.844 114.964 75.796 114.724C75.748 114.484 75.716 114.308 75.7 114.196C75.684 114.308 75.652 114.484 75.604 114.724C75.564 114.956 75.512 115.2 75.448 115.456C75.392 115.712 75.34 115.928 75.292 116.104L73.972 121H72.268L70.06 112.432H71.596L72.772 117.316C72.828 117.524 72.88 117.76 72.928 118.024C72.984 118.288 73.036 118.552 73.084 118.816C73.132 119.072 73.168 119.296 73.192 119.488C73.216 119.288 73.252 119.056 73.3 118.792C73.348 118.528 73.4 118.272 73.456 118.024C73.512 117.768 73.564 117.552 73.612 117.376L74.956 112.432H76.444L77.812 117.388C77.868 117.564 77.924 117.784 77.98 118.048C78.036 118.304 78.088 118.56 78.136 118.816C78.184 119.072 78.22 119.296 78.244 119.488C78.268 119.288 78.3 119.06 78.34 118.804C78.388 118.548 78.44 118.288 78.496 118.024C78.552 117.76 78.608 117.524 78.664 117.316L79.84 112.432H81.376Z" fill="white"/>
<path d="M93.492 115.612C94.036 115.612 94.516 115.712 94.932 115.912C95.348 116.104 95.672 116.392 95.904 116.776C96.144 117.16 96.264 117.628 96.264 118.18C96.264 119.092 95.976 119.812 95.4 120.34C94.832 120.86 94.008 121.12 92.928 121.12C92.48 121.12 92.06 121.08 91.668 121C91.276 120.92 90.936 120.804 90.648 120.652V119.308C90.944 119.468 91.3 119.6 91.716 119.704C92.132 119.808 92.524 119.86 92.892 119.86C93.46 119.86 93.904 119.736 94.224 119.488C94.552 119.24 94.716 118.852 94.716 118.324C94.716 117.852 94.564 117.492 94.26 117.244C93.956 116.988 93.484 116.86 92.844 116.86C92.62 116.86 92.376 116.88 92.112 116.92C91.856 116.96 91.644 117 91.476 117.04L90.828 116.68L91.152 112.432H95.664V113.752H92.484L92.304 115.732C92.44 115.708 92.6 115.684 92.784 115.66C92.968 115.628 93.204 115.612 93.492 115.612ZM103.227 116.716C103.227 117.636 103.131 118.424 102.939 119.08C102.747 119.736 102.435 120.24 102.003 120.592C101.571 120.944 100.999 121.12 100.287 121.12C99.2792 121.12 98.5392 120.732 98.0672 119.956C97.5952 119.172 97.3592 118.092 97.3592 116.716C97.3592 115.788 97.4552 114.996 97.6472 114.34C97.8392 113.684 98.1472 113.18 98.5712 112.828C99.0032 112.476 99.5752 112.3 100.287 112.3C101.287 112.3 102.027 112.688 102.507 113.464C102.987 114.24 103.227 115.324 103.227 116.716ZM98.8832 116.716C98.8832 117.764 98.9832 118.552 99.1832 119.08C99.3912 119.608 99.7592 119.872 100.287 119.872C100.807 119.872 101.171 119.612 101.379 119.092C101.595 118.564 101.703 117.772 101.703 116.716C101.703 115.66 101.595 114.868 101.379 114.34C101.171 113.812 100.807 113.548 100.287 113.548C99.7592 113.548 99.3912 113.812 99.1832 114.34C98.9832 114.868 98.8832 115.66 98.8832 116.716ZM110.094 116.716C110.094 117.636 109.998 118.424 109.806 119.08C109.614 119.736 109.302 120.24 108.87 120.592C108.438 120.944 107.866 121.12 107.154 121.12C106.146 121.12 105.406 120.732 104.934 119.956C104.462 119.172 104.226 118.092 104.226 116.716C104.226 115.788 104.322 114.996 104.514 114.34C104.706 113.684 105.014 113.18 105.438 112.828C105.87 112.476 106.442 112.3 107.154 112.3C108.154 112.3 108.894 112.688 109.374 113.464C109.854 114.24 110.094 115.324 110.094 116.716ZM105.75 116.716C105.75 117.764 105.85 118.552 106.05 119.08C106.258 119.608 106.626 119.872 107.154 119.872C107.674 119.872 108.038 119.612 108.246 119.092C108.462 118.564 108.57 117.772 108.57 116.716C108.57 115.66 108.462 114.868 108.246 114.34C108.038 113.812 107.674 113.548 107.154 113.548C106.626 113.548 106.258 113.812 106.05 114.34C105.85 114.868 105.75 115.66 105.75 116.716Z" fill="white"/>
<rect x="59.5" y="101.5" width="129" height="29" rx="0.5" stroke="white" stroke-opacity="0.1"/>
<path d="M73.552 157.432C74.68 157.432 75.512 157.64 76.048 158.056C76.592 158.472 76.864 159.104 76.864 159.952C76.864 160.368 76.784 160.724 76.624 161.02C76.472 161.316 76.272 161.564 76.024 161.764C75.776 161.956 75.508 162.112 75.22 162.232L77.68 166H75.952L73.9 162.616H72.652V166H71.116V157.432H73.552ZM73.456 158.716H72.652V161.356H73.504C74.136 161.356 74.592 161.244 74.872 161.02C75.16 160.788 75.304 160.448 75.304 160C75.304 159.536 75.152 159.208 74.848 159.016C74.552 158.816 74.088 158.716 73.456 158.716Z" fill="white"/>
<path d="M96.36 161.716C96.36 162.636 96.264 163.424 96.072 164.08C95.88 164.736 95.568 165.24 95.136 165.592C94.704 165.944 94.132 166.12 93.42 166.12C92.412 166.12 91.672 165.732 91.2 164.956C90.728 164.172 90.492 163.092 90.492 161.716C90.492 160.788 90.588 159.996 90.78 159.34C90.972 158.684 91.28 158.18 91.704 157.828C92.136 157.476 92.708 157.3 93.42 157.3C94.42 157.3 95.16 157.688 95.64 158.464C96.12 159.24 96.36 160.324 96.36 161.716ZM92.016 161.716C92.016 162.764 92.116 163.552 92.316 164.08C92.524 164.608 92.892 164.872 93.42 164.872C93.94 164.872 94.304 164.612 94.512 164.092C94.728 163.564 94.836 162.772 94.836 161.716C94.836 160.66 94.728 159.868 94.512 159.34C94.304 158.812 93.94 158.548 93.42 158.548C92.892 158.548 92.524 158.812 92.316 159.34C92.116 159.868 92.016 160.66 92.016 161.716ZM101.115 159.424C101.115 160.088 100.939 160.604 100.587 160.972C100.235 161.34 99.7592 161.524 99.1592 161.524C98.5912 161.524 98.1272 161.344 97.7672 160.984C97.4072 160.616 97.2272 160.096 97.2272 159.424C97.2272 158.752 97.3992 158.236 97.7432 157.876C98.0952 157.516 98.5752 157.336 99.1832 157.336C99.7432 157.336 100.203 157.516 100.563 157.876C100.931 158.236 101.115 158.752 101.115 159.424ZM98.2472 159.424C98.2472 159.84 98.3192 160.156 98.4632 160.372C98.6072 160.58 98.8432 160.684 99.1712 160.684C99.4912 160.684 99.7232 160.58 99.8672 160.372C100.011 160.156 100.083 159.84 100.083 159.424C100.083 159 100.011 158.688 99.8672 158.488C99.7232 158.28 99.4912 158.176 99.1712 158.176C98.8432 158.176 98.6072 158.28 98.4632 158.488C98.3192 158.688 98.2472 159 98.2472 159.424Z" fill="white"/>
<rect x="59.5" y="146.5" width="129" height="29" rx="0.5" stroke="white" stroke-opacity="0.1"/>
<path d="M100.82 246.948L100.508 248.52H102.068V249.576H100.304L99.836 252H98.72L99.188 249.576H97.832L97.376 252H96.272L96.716 249.576H95.276V248.52H96.92L97.232 246.948H95.708V245.892H97.424L97.892 243.444H99.008L98.552 245.892H99.92L100.388 243.444H101.48L101.024 245.892H102.464V246.948H100.82ZM98.024 248.52H99.392L99.704 246.948H98.336L98.024 248.52ZM105.386 252H103.874V243.432H108.734V244.716H105.386V247.236H108.506V248.52H105.386V252ZM111.843 252H110.331V243.432H115.191V244.716H111.843V247.236H114.963V248.52H111.843V252ZM118.3 252H116.788V243.432H121.648V244.716H118.3V247.236H121.42V248.52H118.3V252ZM124.757 252H123.245V243.432H128.105V244.716H124.757V247.236H127.877V248.52H124.757V252ZM131.214 252H129.702V243.432H134.562V244.716H131.214V247.236H134.334V248.52H131.214V252ZM137.671 252H136.159V243.432H141.019V244.716H137.671V247.236H140.791V248.52H137.671V252Z" fill="white"/>
<rect x="59.5" y="232.5" width="129" height="29" rx="0.5" stroke="white" stroke-opacity="0.1"/>
<path d="M214.764 158.608C213.98 158.608 213.372 158.888 212.94 159.448C212.516 160.008 212.304 160.768 212.304 161.728C212.304 162.696 212.504 163.456 212.904 164.008C213.304 164.552 213.92 164.824 214.752 164.824C215.112 164.824 215.464 164.788 215.808 164.716C216.152 164.636 216.512 164.532 216.888 164.404V165.712C216.536 165.856 216.18 165.96 215.82 166.024C215.468 166.088 215.06 166.12 214.596 166.12C213.716 166.12 212.988 165.94 212.412 165.58C211.836 165.212 211.408 164.7 211.128 164.044C210.848 163.38 210.708 162.604 210.708 161.716C210.708 160.852 210.864 160.092 211.176 159.436C211.488 158.772 211.944 158.252 212.544 157.876C213.152 157.5 213.892 157.312 214.764 157.312C215.196 157.312 215.62 157.364 216.036 157.468C216.46 157.564 216.856 157.7 217.224 157.876L216.696 159.136C216.392 159 216.076 158.88 215.748 158.776C215.428 158.664 215.1 158.608 214.764 158.608Z" fill="white"/>
<path d="M233.492 160.612C234.036 160.612 234.516 160.712 234.932 160.912C235.348 161.104 235.672 161.392 235.904 161.776C236.144 162.16 236.264 162.628 236.264 163.18C236.264 164.092 235.976 164.812 235.4 165.34C234.832 165.86 234.008 166.12 232.928 166.12C232.48 166.12 232.06 166.08 231.668 166C231.276 165.92 230.936 165.804 230.648 165.652V164.308C230.944 164.468 231.3 164.6 231.716 164.704C232.132 164.808 232.524 164.86 232.892 164.86C233.46 164.86 233.904 164.736 234.224 164.488C234.552 164.24 234.716 163.852 234.716 163.324C234.716 162.852 234.564 162.492 234.26 162.244C233.956 161.988 233.484 161.86 232.844 161.86C232.62 161.86 232.376 161.88 232.112 161.92C231.856 161.96 231.644 162 231.476 162.04L230.828 161.68L231.152 157.432H235.664V158.752H232.484L232.304 160.732C232.44 160.708 232.6 160.684 232.784 160.66C232.968 160.628 233.204 160.612 233.492 160.612Z" fill="white"/>
<rect x="199.5" y="146.5" width="129" height="29" rx="0.5" stroke="white" stroke-opacity="0.1"/>
<path d="M217.956 121H216.42V117.196H212.652V121H211.116V112.432H212.652V115.888H216.42V112.432H217.956V121Z" fill="white"/>
<path d="M233.492 115.612C234.036 115.612 234.516 115.712 234.932 115.912C235.348 116.104 235.672 116.392 235.904 116.776C236.144 117.16 236.264 117.628 236.264 118.18C236.264 119.092 235.976 119.812 235.4 120.34C234.832 120.86 234.008 121.12 232.928 121.12C232.48 121.12 232.06 121.08 231.668 121C231.276 120.92 230.936 120.804 230.648 120.652V119.308C230.944 119.468 231.3 119.6 231.716 119.704C232.132 119.808 232.524 119.86 232.892 119.86C233.46 119.86 233.904 119.736 234.224 119.488C234.552 119.24 234.716 118.852 234.716 118.324C234.716 117.852 234.564 117.492 234.26 117.244C233.956 116.988 233.484 116.86 232.844 116.86C232.62 116.86 232.376 116.88 232.112 116.92C231.856 116.96 231.644 117 231.476 117.04L230.828 116.68L231.152 112.432H235.664V113.752H232.484L232.304 115.732C232.44 115.708 232.6 115.684 232.784 115.66C232.968 115.628 233.204 115.612 233.492 115.612ZM243.227 116.716C243.227 117.636 243.131 118.424 242.939 119.08C242.747 119.736 242.435 120.24 242.003 120.592C241.571 120.944 240.999 121.12 240.287 121.12C239.279 121.12 238.539 120.732 238.067 119.956C237.595 119.172 237.359 118.092 237.359 116.716C237.359 115.788 237.455 114.996 237.647 114.34C237.839 113.684 238.147 113.18 238.571 112.828C239.003 112.476 239.575 112.3 240.287 112.3C241.287 112.3 242.027 112.688 242.507 113.464C242.987 114.24 243.227 115.324 243.227 116.716ZM238.883 116.716C238.883 117.764 238.983 118.552 239.183 119.08C239.391 119.608 239.759 119.872 240.287 119.872C240.807 119.872 241.171 119.612 241.379 119.092C241.595 118.564 241.703 117.772 241.703 116.716C241.703 115.66 241.595 114.868 241.379 114.34C241.171 113.812 240.807 113.548 240.287 113.548C239.759 113.548 239.391 113.812 239.183 114.34C238.983 114.868 238.883 115.66 238.883 116.716ZM250.094 116.716C250.094 117.636 249.998 118.424 249.806 119.08C249.614 119.736 249.302 120.24 248.87 120.592C248.438 120.944 247.866 121.12 247.154 121.12C246.146 121.12 245.406 120.732 244.934 119.956C244.462 119.172 244.226 118.092 244.226 116.716C244.226 115.788 244.322 114.996 244.514 114.34C244.706 113.684 245.014 113.18 245.438 112.828C245.87 112.476 246.442 112.3 247.154 112.3C248.154 112.3 248.894 112.688 249.374 113.464C249.854 114.24 250.094 115.324 250.094 116.716ZM245.75 116.716C245.75 117.764 245.85 118.552 246.05 119.08C246.258 119.608 246.626 119.872 247.154 119.872C247.674 119.872 248.038 119.612 248.246 119.092C248.462 118.564 248.57 117.772 248.57 116.716C248.57 115.66 248.462 114.868 248.246 114.34C248.038 113.812 247.674 113.548 247.154 113.548C246.626 113.548 246.258 113.812 246.05 114.34C245.85 114.868 245.75 115.66 245.75 116.716Z" fill="white"/>
<rect x="199.5" y="101.5" width="129" height="29" rx="0.5" stroke="white" stroke-opacity="0.1"/>
<path d="M212.612 71.212L214.568 67.432H216.224L213.38 72.664V76H211.844V72.724L209 67.432H210.668L212.612 71.212Z" fill="white"/>
<path d="M235.048 69.388C235.048 69.972 234.876 70.44 234.532 70.792C234.196 71.136 233.76 71.368 233.224 71.488V71.524C233.912 71.612 234.432 71.828 234.784 72.172C235.136 72.508 235.312 72.96 235.312 73.528C235.312 74.024 235.192 74.468 234.952 74.86C234.712 75.252 234.34 75.56 233.836 75.784C233.34 76.008 232.7 76.12 231.916 76.12C231.452 76.12 231.02 76.08 230.62 76C230.22 75.928 229.844 75.812 229.492 75.652V74.32C229.852 74.504 230.236 74.644 230.644 74.74C231.052 74.836 231.436 74.884 231.796 74.884C232.492 74.884 232.984 74.76 233.272 74.512C233.56 74.256 233.704 73.904 233.704 73.456C233.704 73.032 233.536 72.716 233.2 72.508C232.864 72.3 232.304 72.196 231.52 72.196H230.8V70.984H231.532C232.292 70.984 232.816 70.864 233.104 70.624C233.392 70.376 233.536 70.052 233.536 69.652C233.536 69.308 233.424 69.04 233.2 68.848C232.976 68.656 232.64 68.56 232.192 68.56C231.76 68.56 231.388 68.632 231.076 68.776C230.764 68.912 230.484 69.06 230.236 69.22L229.516 68.176C229.836 67.936 230.22 67.732 230.668 67.564C231.124 67.396 231.656 67.312 232.264 67.312C233.152 67.312 233.836 67.5 234.316 67.876C234.804 68.244 235.048 68.748 235.048 69.388ZM242.515 74.164H241.399V76H239.911V74.164H236.095V73.036L239.947 67.408H241.399V72.928H242.515V74.164ZM239.911 71.008C239.911 70.792 239.915 70.56 239.923 70.312C239.931 70.064 239.939 69.836 239.947 69.628C239.963 69.412 239.975 69.248 239.983 69.136H239.935C239.791 69.472 239.619 69.784 239.419 70.072L237.475 72.928H239.911V71.008ZM248.782 69.388C248.782 69.972 248.61 70.44 248.266 70.792C247.93 71.136 247.494 71.368 246.958 71.488V71.524C247.646 71.612 248.166 71.828 248.518 72.172C248.87 72.508 249.046 72.96 249.046 73.528C249.046 74.024 248.926 74.468 248.686 74.86C248.446 75.252 248.074 75.56 247.57 75.784C247.074 76.008 246.434 76.12 245.65 76.12C245.186 76.12 244.754 76.08 244.354 76C243.954 75.928 243.578 75.812 243.226 75.652V74.32C243.586 74.504 243.97 74.644 244.378 74.74C244.786 74.836 245.17 74.884 245.53 74.884C246.226 74.884 246.718 74.76 247.006 74.512C247.294 74.256 247.438 73.904 247.438 73.456C247.438 73.032 247.27 72.716 246.934 72.508C246.598 72.3 246.038 72.196 245.254 72.196H244.534V70.984H245.266C246.026 70.984 246.55 70.864 246.838 70.624C247.126 70.376 247.27 70.052 247.27 69.652C247.27 69.308 247.158 69.04 246.934 68.848C246.71 68.656 246.374 68.56 245.926 68.56C245.494 68.56 245.122 68.632 244.81 68.776C244.498 68.912 244.218 69.06 243.97 69.22L243.25 68.176C243.57 67.936 243.954 67.732 244.402 67.564C244.858 67.396 245.39 67.312 245.998 67.312C246.886 67.312 247.57 67.5 248.05 67.876C248.538 68.244 248.782 68.748 248.782 69.388Z" fill="white"/>
<rect x="199.5" y="56.5" width="129" height="29" rx="0.5" stroke="white" stroke-opacity="0.1"/>
<path d="M61.628 214H60.116V205.432H64.976V206.716H61.628V209.236H64.748V210.52H61.628V214ZM67.185 204.988C67.417 204.988 67.613 205.048 67.773 205.168C67.941 205.28 68.025 205.484 68.025 205.78C68.025 206.076 67.941 206.284 67.773 206.404C67.613 206.524 67.417 206.584 67.185 206.584C66.953 206.584 66.753 206.524 66.585 206.404C66.425 206.284 66.345 206.076 66.345 205.78C66.345 205.484 66.425 205.28 66.585 205.168C66.753 205.048 66.953 204.988 67.185 204.988ZM67.941 207.496V214H66.429V207.496H67.941ZM71.3863 214H69.8743V204.88H71.3863V214ZM74.8317 214H73.3197V204.88H74.8317V214Z" fill="white"/>
<rect width="20" height="20" rx="1" transform="matrix(1 0 0 -1 66 257)" fill="white"/>
<defs>
<filter id="filter0_d_8_80" x="0" y="0" width="388" height="345" filterUnits="userSpaceOnUse" color-interpolation-filters="sRGB">
<feFlood flood-opacity="0" result="BackgroundImageFix"/>
<feColorMatrix in="SourceAlpha" type="matrix" values="0 0 0 0 0 0 0 0 0 0 0 0 0 0 0 0 0 0 127 0" result="hardAlpha"/>
<feOffset dy="15"/>
<feGaussianBlur stdDeviation="15"/>
<feColorMatrix type="matrix" values="0 0 0 0 0 0 0 0 0 0 0 0 0 0 0 0 0 0 0.15 0"/>
<feBlend mode="normal" in2="BackgroundImageFix" result="effect1_dropShadow_8_80"/>
<feBlend mode="normal" in="SourceGraphic" in2="effect1_dropShadow_8_80" result="shape"/>
</filter>
<clipPath id="clip0_8_80">
<rect width="16" height="16" fill="white" transform="translate(265 239)"/>
</clipPath>
</defs>
</svg>
